<svg class="h-5 w-5" id="Capa_1" enable-background="new 0 0 512 512" height="512" viewBox="0 0 512 512" width="512" xmlns="http://www.w3.org/2000/svg"><g><path d="m512 87c0-24.853-20.147-45-45-45h-422c-24.853 0-45 20.147-45 45v90c0 8.284 6.716 15 15 15h482c8.284 0 15-6.716 15-15z" fill="#ff405c"/><path d="m467 42h-211v150h241c8.284 0 15-6.716 15-15v-90c0-24.853-20.147-45-45-45z" fill="#e20059"/><path d="m0 177v290c0 24.813 20.187 45 45 45h422c24.813 0 45-20.187 45-45v-290z" fill="#f6f6f6"/><path d="m256 512h211c24.813 0 45-20.187 45-45v-290h-256z" fill="#e2dff4"/><path d="m181 15v69c0 8.284 6.716 15 15 15 8.284 0 15-6.716 15-15v-69c0-8.284-6.716-15-15-15-8.284 0-15 6.716-15 15z" fill="#fff16b"/><path d="m421 15v69c0 8.284 6.716 15 15 15 8.284 0 15-6.716 15-15v-69c0-8.284-6.716-15-15-15-8.284 0-15 6.716-15 15z" fill="#ffc178"/><path d="m301 15v69c0 8.284 6.716 15 15 15 8.284 0 15-6.716 15-15v-69c0-8.284-6.716-15-15-15-8.284 0-15 6.716-15 15z" fill="#ffc178"/><path d="m61 15v69c0 8.284 6.716 15 15 15 8.284 0 15-6.716 15-15v-69c0-8.284-6.716-15-15-15-8.284 0-15 6.716-15 15z" fill="#fff16b"/><path d="m313.614 286.629c-.044-.114-.088-.228-.135-.341-2.321-5.645-7.763-9.29-13.866-9.29-.006 0-.012 0-.018 0-6.11.007-11.552 3.667-13.862 9.322-.037.092-.074.185-.109.278l-41.305 108.451c-2.457 6.451.781 13.673 7.232 16.13 1.465.558 2.968.822 4.447.822 5.036 0 9.784-3.067 11.684-8.054l7.221-18.959h49.108l7.142 18.924c2.438 6.459 9.651 9.719 16.108 7.281 6.459-2.438 9.72-9.649 7.282-16.108zm-29.189 73.359 15.145-39.766 15.007 39.766z" fill="#00429b"/><path d="m313.614 286.629c-.044-.114-.088-.228-.135-.341-2.321-5.645-7.763-9.29-13.866-9.29-.006 0-.012 0-.018 0-6.11.007-11.552 3.667-13.862 9.322-.037.092-.074.185-.109.278l-29.624 77.782v47.622c5.036 0 9.783-3.068 11.682-8.054l7.221-18.959h49.108l7.142 18.924c2.438 6.459 9.651 9.72 16.108 7.281 6.459-2.438 9.72-9.649 7.282-16.108zm-29.189 73.359 15.146-39.766 15.007 39.766z" fill="#38336b"/><path d="m219.176 302c6.903 0 12.5-5.596 12.5-12.5s-5.597-12.5-12.5-12.5h-46.35c-6.903 0-12.5 5.596-12.5 12.5v110c0 6.904 5.597 12.5 12.5 12.5h46.35c6.903 0 12.5-5.596 12.5-12.5s-5.597-12.5-12.5-12.5h-33.85v-30h30.433c6.903 0 12.5-5.596 12.5-12.5s-5.597-12.5-12.5-12.5h-30.433v-30z" fill="#00429b"/><path d="m138.804 279.303c-5.786-3.766-13.529-2.129-17.295 3.657l-24.388 37.463-24.653-37.757c-3.776-5.78-11.521-7.407-17.301-3.632-5.78 3.774-7.407 11.52-3.633 17.301l33.094 50.683-.128 52.452c-.017 6.904 5.565 12.514 12.47 12.531h.031c6.889 0 12.482-5.576 12.499-12.469l.129-52.496 32.831-50.436c3.766-5.787 2.13-13.53-3.656-17.297z" fill="#00429b"/><path d="m420.092 357.961c18.589-4.445 32.409-20.632 32.409-39.873 0-22.656-19.157-41.088-42.705-41.088h-29.231c-.006 0-.012.001-.018.001s-.011-.001-.017-.001c-6.903 0-12.5 5.596-12.5 12.5v110c0 6.904 5.597 12.5 12.5 12.5s12.5-5.596 12.5-12.5v-34.449l37.589 42.707c2.471 2.808 5.92 4.242 9.388 4.242 2.933 0 5.879-1.027 8.254-3.117 5.182-4.561 5.686-12.46 1.124-17.642zm-10.296-55.961c9.597 0 17.705 7.367 17.705 16.088 0 8.72-8.108 16.087-17.705 16.087-3.839 0-10.574.028-16.6.058-.03-5.901-.06-12.448-.06-16.146 0-3.156-.017-9.925-.034-16.088h16.694z" fill="#38336b"/></g></svg>