<?xml version="1.0" encoding="UTF-8"?>
<svg class="h-5 w-5" xmlns="http://www.w3.org/2000/svg" xmlns:xlink="http://www.w3.org/1999/xlink" version="1.1" id="Capa_1" x="0px" y="0px" viewBox="0 0 512 512" style="enable-background:new 0 0 512 512;" xml:space="preserve" width="512" height="512">
<g>
	<g>
		<path style="fill:#868EAF;" d="M440.116,390.86c-17.608-29.384-55.45-42.076-87.104-30.3&#10;&#9;&#9;&#9;c-10.838,3.937-23.114-0.844-28.977-10.651l-19.363-32.388l-41.567,67.328l0.02,0.031l52.289,81.797&#10;&#9;&#9;&#9;c21.12,34.249,66.015,45.75,100.427,24.885C450.508,470.533,461.368,425.312,440.116,390.86z M378.223,459.032&#10;&#9;&#9;&#9;c-16.804,0.305-30.667-13.069-30.972-29.873c-0.305-16.794,13.069-30.666,29.873-30.972c16.794-0.305,30.667,13.069,30.972,29.873&#10;&#9;&#9;&#9;C408.401,444.865,395.027,458.727,378.223,459.032z"/>
	</g>
	<g>
		<path style="fill:#E0E7EF;" d="M426.543,123.27L304.675,317.52l-52.897-34.986L433.803,10.001l1.695,4.136&#10;&#9;&#9;&#9;C450.132,49.857,446.803,90.419,426.543,123.27z"/>
		<path style="fill:#CED3DD;" d="M251.776,282.528l-23.369,34.992l-23.762,34.159c-6.306,9.066-17.866,12.654-28.26,8.89&#10;&#9;&#9;&#9;c-31.654-11.776-69.496,0.916-87.104,30.3c-21.252,34.463-10.392,79.664,24.285,100.692&#10;&#9;&#9;&#9;c34.402,20.865,79.297,9.374,100.417-24.875l49.142-81.807l41.547-67.358L251.776,282.528z M152.283,459.043&#10;&#9;&#9;&#9;c-16.804,0.305-30.667-13.069-30.972-29.873c-0.305-16.794,13.069-30.666,29.873-30.972c16.794-0.305,30.667,13.069,30.972,29.873&#10;&#9;&#9;&#9;C182.461,444.875,169.087,458.737,152.283,459.043z"/>
		<g>
			<path style="fill:none;stroke:#000000;stroke-width:20;stroke-linecap:round;stroke-linejoin:round;stroke-miterlimit:10;" d="&#10;&#9;&#9;&#9;&#9;M440.116,390.86c-17.608-29.384-55.45-42.076-87.104-30.3c-10.838,3.937-23.114-0.844-28.977-10.651l-19.363-32.388&#10;&#9;&#9;&#9;&#9;l-41.567,67.328l0.02,0.031l52.289,81.797c21.12,34.249,66.015,45.75,100.427,24.885&#10;&#9;&#9;&#9;&#9;C450.508,470.533,461.368,425.312,440.116,390.86z M378.223,459.032c-16.804,0.305-30.667-13.069-30.972-29.873&#10;&#9;&#9;&#9;&#9;c-0.305-16.794,13.069-30.666,29.873-30.972c16.794-0.305,30.667,13.069,30.972,29.873&#10;&#9;&#9;&#9;&#9;C408.401,444.865,395.027,458.727,378.223,459.032z"/>
		</g>
		<path style="fill:none;stroke:#000000;stroke-width:20;stroke-linecap:round;stroke-linejoin:round;stroke-miterlimit:10;" d="&#10;&#9;&#9;&#9;M251.776,282.528l-23.369,34.992l-23.762,34.159c-6.306,9.066-17.866,12.654-28.26,8.89c-31.654-11.776-69.496,0.916-87.104,30.3&#10;&#9;&#9;&#9;c-21.252,34.463-10.392,79.664,24.285,100.692c34.402,20.865,79.297,9.374,100.417-24.875l49.142-81.807l41.547-67.358&#10;&#9;&#9;&#9;L251.776,282.528z M152.283,459.043c-16.804,0.305-30.667-13.069-30.972-29.873c-0.305-16.794,13.069-30.666,29.873-30.972&#10;&#9;&#9;&#9;c16.794-0.305,30.667,13.069,30.972,29.873C182.461,444.875,169.087,458.737,152.283,459.043z"/>
	</g>
	<g>
		<path style="fill:#E0E7EF;" d="M135.151,66.676H86.593c-0.178-15.918,2.798-37.392,9.007-52.537L97.293,10L135.151,66.676z"/>
	</g>
	<path style="fill:none;stroke:#000000;stroke-width:20;stroke-linecap:round;stroke-linejoin:round;stroke-miterlimit:10;" d="&#10;&#9;&#9;M426.543,123.27L304.675,317.52l-52.897-34.986L433.803,10.001l1.695,4.136C450.132,49.857,446.803,90.419,426.543,123.27z"/>
	<g>
		<path style="fill:none;stroke:#000000;stroke-width:20;stroke-linecap:round;stroke-linejoin:round;stroke-miterlimit:10;" d="&#10;&#9;&#9;&#9;M135.151,66.676H86.593c-0.178-15.918,2.798-37.392,9.007-52.537L97.293,10L135.151,66.676z"/>
	</g>
	<g>
		<polygon style="fill:#79E4A2;" points="213.414,66.676 21.276,66.676 21.276,317.52 228.403,317.52 255.311,277.234 &#10;&#9;&#9;&#9;369.06,106.931 395.938,66.676 303.21,66.676 &#9;&#9;"/>
		<path style="fill:#79E4A2;" d="M490.724,66.676V317.52H304.675l25.274-40.286l95.031-151.472l1.562-2.492&#10;&#9;&#9;&#9;c10.682-17.34,16.665-36.814,17.768-56.594H490.724z"/>
		
			<polyline style="fill:none;stroke:#000000;stroke-width:20;stroke-linecap:round;stroke-linejoin:round;stroke-miterlimit:10;" points="&#10;&#9;&#9;&#9;213.414,66.676 21.276,66.676 21.276,317.52 228.403,317.52 255.311,277.234 369.06,106.931 395.938,66.676 303.21,66.676 &#9;&#9;"/>
		<path style="fill:none;stroke:#000000;stroke-width:20;stroke-linecap:round;stroke-linejoin:round;stroke-miterlimit:10;" d="&#10;&#9;&#9;&#9;M490.724,66.676V317.52H304.675l25.274-40.286l95.031-151.472l1.562-2.492c10.682-17.34,16.665-36.814,17.768-56.594H490.724z"/>
		<path style="fill:#BEF0CF;" d="M369.057,106.933L255.308,277.238H94.545c0.251-16.629-14.131-30.844-30.593-30.593v-109.12&#10;&#9;&#9;&#9;c16.891,0,30.593-13.692,30.593-30.593H369.057z"/>
		<path style="fill:#BEF0CF;" d="M449.078,137.525v109.12c-16.462-0.251-30.844,13.964-30.593,30.593h-88.539l95.03-151.471&#10;&#9;&#9;&#9;C430.567,132.927,439.285,137.525,449.078,137.525z"/>
		<path style="fill:none;stroke:#000000;stroke-width:20;stroke-linecap:round;stroke-linejoin:round;stroke-miterlimit:10;" d="&#10;&#9;&#9;&#9;M369.057,106.933L255.308,277.238H94.545c0.251-16.629-14.131-30.844-30.593-30.593v-109.12c16.891,0,30.593-13.692,30.593-30.593&#10;&#9;&#9;&#9;H369.057z"/>
		<path style="fill:none;stroke:#000000;stroke-width:20;stroke-linecap:round;stroke-linejoin:round;stroke-miterlimit:10;" d="&#10;&#9;&#9;&#9;M449.078,137.525v109.12c-16.462-0.251-30.844,13.964-30.593,30.593h-88.539l95.03-151.471&#10;&#9;&#9;&#9;C430.567,132.927,439.285,137.525,449.078,137.525z"/>
		<circle style="fill:#79E4A2;" cx="256.809" cy="192.088" r="42.513"/>
		
			<circle style="fill:none;stroke:#000000;stroke-width:20;stroke-linecap:round;stroke-linejoin:round;stroke-miterlimit:10;" cx="256.809" cy="192.088" r="42.513"/>
	</g>
	
		<line style="fill:none;stroke:#000000;stroke-width:20;stroke-linecap:round;stroke-linejoin:round;stroke-miterlimit:10;" x1="256.809" y1="333.396" x2="256.809" y2="333.396"/>
	
		<line style="fill:none;stroke:#000000;stroke-width:20;stroke-linecap:round;stroke-linejoin:round;stroke-miterlimit:10;" x1="258.977" y1="66.676" x2="258.977" y2="66.676"/>
</g>















</svg>
