<svg class="h-5 w-5" enable-background="new 0 0 512 512" viewBox="0 0 512 512" xmlns="http://www.w3.org/2000/svg"><g id="_x32_6_Structure"><g><g><ellipse cx="258.879" cy="143.237" fill="#f4feff" rx="129.194" ry="129.194" transform="matrix(.707 -.707 .707 .707 -25.46 225.009)"/></g><g><path d="m319.019 176.241v34.754c0 12.852-10.418 23.27-23.27 23.27h-73.739c-12.852 0-23.27-10.418-23.27-23.27v-34.754c0-15.689 12.719-28.408 28.408-28.408h63.464c15.688 0 28.407 12.719 28.407 28.408z" fill="#ff6067"/></g><g><path d="m289.83 83.161c0 17.087-13.865 39.06-30.951 39.06s-30.951-21.974-30.951-39.06 13.865-30.951 30.951-30.951c17.087 0 30.951 13.865 30.951 30.951z" fill="#f4feff"/></g><g><path d="m116.464 423.626v44.87c0 15.623-12.665 28.288-28.288 28.288h-44.87c-15.623 0-28.288-12.665-28.288-28.288v-44.87c0-15.623 12.665-28.288 28.288-28.288h44.87c15.623 0 28.288 12.665 28.288 28.288z" fill="#ed836d"/></g><g><path d="m309.603 423.626v44.87c0 15.623-12.665 28.288-28.288 28.288h-44.87c-15.623 0-28.288-12.665-28.288-28.288v-44.87c0-15.623 12.665-28.288 28.288-28.288h44.87c15.623 0 28.288 12.665 28.288 28.288z" fill="#81b840"/></g><g><path d="m502.741 423.626v44.87c0 15.623-12.665 28.288-28.288 28.288h-44.87c-15.623 0-28.288-12.665-28.288-28.288v-44.87c0-15.623 12.665-28.288 28.288-28.288h44.87c15.623 0 28.288 12.665 28.288 28.288z" fill="#7868d3"/></g><path d="m295.748 240.363c16.194 0 29.368-13.174 29.368-29.368v-34.755c0-19.023-15.48-34.503-34.505-34.503h-63.464c-19.026 0-34.505 15.48-34.505 34.503v34.755c0 16.194 13.174 29.368 29.368 29.368zm-60.54-12.193v-11.636c0-3.367-2.729-6.097-6.097-6.097-3.367 0-6.097 2.729-6.097 6.097v11.636h-1.005c-9.471 0-17.175-7.706-17.175-17.175v-34.755c0-12.303 10.009-22.31 22.312-22.31h63.464c12.303 0 22.312 10.007 22.312 22.31v34.755c0 8.468-6.175 15.481-14.251 16.879v-11.34c0-3.367-2.729-6.097-6.097-6.097-3.367 0-6.097 2.729-6.097 6.097v11.636z"/><path d="m258.88 128.32c20.521 0 37.046-24.705 37.046-45.157 0-20.428-16.618-37.051-37.046-37.051s-37.048 16.623-37.048 37.051c0 20.452 16.525 45.157 37.048 45.157zm0-70.015c13.703 0 24.853 11.15 24.853 24.858 0 14.394-12.053 32.964-24.853 32.964-12.803 0-24.855-18.571-24.855-32.964 0-13.708 11.15-24.858 24.855-24.858z"/><path d="m452.017 370.22c3.367 0 6.097-2.729 6.097-6.097v-45.848c0-3.367-2.729-6.097-6.097-6.097h-187.04v-33.805c71.779-3.201 129.192-62.579 129.192-135.137 0-74.602-60.689-135.291-135.289-135.291s-135.291 60.691-135.291 135.293c0 72.557 57.415 131.935 129.194 135.137v33.805h-187.042c-3.367 0-6.097 2.729-6.097 6.097v45.848c0 3.367 2.729 6.097 6.097 6.097 3.367 0 6.097-2.729 6.097-6.097v-39.751h180.946v39.751c0 3.367 2.729 6.097 6.097 6.097 3.367 0 6.097-2.729 6.097-6.097v-39.751h180.942v39.751c0 3.366 2.73 6.095 6.097 6.095zm-316.235-226.982c0-67.877 55.221-123.098 123.098-123.098 67.874 0 123.096 55.221 123.096 123.098s-55.222 123.097-123.096 123.097c-67.876 0-123.098-55.221-123.098-123.097z"/><path d="m88.177 389.243h-44.872c-18.959 0-34.384 15.422-34.384 34.384v44.872c0 18.961 15.425 34.384 34.384 34.384h44.872c18.959 0 34.384-15.422 34.384-34.384v-44.872c-.001-18.962-15.425-34.384-34.384-34.384zm22.19 79.255c0 12.236-9.955 22.19-22.19 22.19h-44.872c-12.236 0-22.19-9.955-22.19-22.19v-44.872c0-12.236 9.955-22.19 22.19-22.19h44.872c12.236 0 22.19 9.955 22.19 22.19z"/><path d="m281.314 389.243h-44.869c-18.961 0-34.386 15.422-34.386 34.384v44.872c0 18.961 15.425 34.384 34.386 34.384h44.869c18.961 0 34.386-15.422 34.386-34.384v-44.872c0-18.962-15.425-34.384-34.386-34.384zm22.192 79.255c0 12.236-9.955 22.19-22.193 22.19h-44.869c-12.238 0-22.193-9.955-22.193-22.19v-44.872c0-12.236 9.955-22.19 22.193-22.19h44.869c12.238 0 22.193 9.955 22.193 22.19z"/><path d="m474.453 389.243h-44.869c-18.961 0-34.386 15.422-34.386 34.384v44.872c0 18.961 15.425 34.384 34.386 34.384h44.869c18.961 0 34.386-15.422 34.386-34.384v-44.872c0-18.962-15.425-34.384-34.386-34.384zm22.193 79.255c0 12.236-9.955 22.19-22.193 22.19h-44.869c-12.238 0-22.193-9.955-22.193-22.19v-44.872c0-12.236 9.955-22.19 22.193-22.19h44.869c12.238 0 22.193 9.955 22.193 22.19z"/></g></g><g id="Layer_1"/></svg>