<svg class="h-5 w-5" clip-rule="evenodd" fill-rule="evenodd" stroke-linejoin="round" stroke-miterlimit="2" viewBox="0 0 32 32" xmlns="http://www.w3.org/2000/svg"><path d="m27 8c0-.796-.316-1.559-.879-2.121-.562-.563-1.325-.879-2.121-.879-4.52 0-15.48 0-20 0-.796 0-1.559.316-2.121.879-.563.562-.879 1.325-.879 2.121v20c0 .796.316 1.559.879 2.121.562.563 1.325.879 2.121.879h20c.796 0 1.559-.316 2.121-.879.563-.562.879-1.325.879-2.121z" fill="#e6e6e6"/><path d="m30.035 8.77c1.284-1.284 1.284-3.365 0-4.649-.682-.682-1.474-1.474-2.156-2.156-1.284-1.284-3.365-1.284-4.649 0l-13.283 13.282c-.291.292-.471.676-.508 1.087l-.432 4.744c-.047.521.139 1.036.509 1.406s.885.556 1.406.509l4.744-.432c.411-.037.795-.217 1.087-.509z" fill="#ffc93c"/><path d="m21.906 3.289 6.805 6.805 1.324-1.324c1.284-1.284 1.284-3.365 0-4.649-.682-.682-1.474-1.474-2.156-2.156-1.284-1.284-3.365-1.284-4.649 0z" fill="#f24545"/></svg>