<svg class="h-5 w-5" id="Layer_1" enable-background="new 0 0 512 512" viewBox="0 0 512 512" xmlns="http://www.w3.org/2000/svg"><g><path clip-rule="evenodd" d="m472 96.884h-89.836v-89.836z" fill="#93c0fc" fill-rule="evenodd"/></g><g><path clip-rule="evenodd" d="m145.182 114.527h142.451v80.474h-142.451z" fill="#93c0fc" fill-rule="evenodd"/></g><g><path clip-rule="evenodd" d="m139.463 122.267h153.862c3.329 0 6.033-2.703 6.033-6.033v-26.094c0-3.301-2.703-6.004-6.033-6.004h-153.862c-3.301 0-6.005 2.703-6.005 6.004v26.094c0 3.329 2.703 6.033 6.005 6.033z" fill="#93c0fc" fill-rule="evenodd"/></g><g><path clip-rule="evenodd" d="m79.516 388.059h60.391v26.952h-60.391z" fill="#93c0fc" fill-rule="evenodd" transform="matrix(.5 -.866 .866 .5 -292.828 295.569)"/></g><g><path clip-rule="evenodd" d="m205.65 237.8c-46.04-26.58-104.89-10.82-131.47 35.23-26.57 46.01-10.81 104.89 35.23 131.44 46.02 26.57 104.89 10.81 131.47-35.2 26.55-46.05 10.78-104.89-35.23-131.47zm11.1 117.52c-18.9 32.7-60.73 43.91-93.42 25.04-32.7-18.89-43.91-60.72-25.02-93.42 18.87-32.69 60.7-43.91 93.4-25.01 32.69 18.87 43.91 60.7 25.04 93.39z" fill="#93c0fc" fill-rule="evenodd"/></g><g><path clip-rule="evenodd" d="m51.818 501.814c-11.269-6.516-15.167-21.086-8.679-32.355l27.574-47.721c1.85-3.244 6.033-4.382 9.277-2.504l29.253 16.874c3.216 1.878 4.354 6.061 2.475 9.305l-27.545 47.721c-6.517 11.269-21.087 15.168-32.355 8.68z" fill="#93c0fc" fill-rule="evenodd"/></g><g><path clip-rule="evenodd" d="m142.081 339.045h15.452c8.793 0 18.325-1.28 26.635 2.333 10.017 4.354 17.074 14.37 17.074 25.952v6.403c-21.399 17.757-52.416 21.342-77.913 6.63-3.415-1.992-6.602-4.211-9.533-6.659v-6.374c-.001-15.565 12.747-28.285 28.285-28.285z" fill="#93c0fc" fill-rule="evenodd"/></g><g><path clip-rule="evenodd" d="m157.532 280.198c16.22 0 29.395 13.175 29.395 29.424s-13.175 29.424-29.395 29.424c-16.249 0-29.424-13.175-29.424-29.424s13.176-29.424 29.424-29.424z" fill="#93c0fc" fill-rule="evenodd"/></g><path d="m476.4 92.18-89.31-89.338c-1.499-1.5-3.532-2.342-5.651-2.342h-282.189c-4.414 0-7.992 3.578-7.992 7.992v209.484c0 4.414 3.578 7.992 7.992 7.992s7.992-3.578 7.992-7.992v-201.493h266.205v81.347c0 4.414 3.578 7.992 7.992 7.992h81.319v349.093h-338.046c-4.414 0-7.992 3.578-7.992 7.992s3.578 7.992 7.992 7.992h346.037c4.414 0 7.992-3.578 7.992-7.992v-365.077c0-2.119-.842-4.151-2.341-5.65zm-86.97-2.342v-62.048l62.029 62.049h-62.029zm-152.663-38.898h-40.257c-8.307 0-15.063 6.758-15.063 15.064v11.132h-41.289c-7.714 0-13.989 6.276-13.989 13.989v25.941c0 6.927 5.066 12.679 11.685 13.783v64.523c0 4.414 3.578 7.992 7.992 7.992h141.589c4.414 0 7.992-3.578 7.992-7.992v-64.524c6.603-1.107 11.655-6.857 11.655-13.782v-25.941c0-7.714-6.263-13.989-13.961-13.989h-41.291v-11.132c0-8.306-6.757-15.064-15.063-15.064zm-39.337 15.983h38.417v10.213h-38.417zm82.011 120.458h-125.605v-56.325h16.097v4.455c0 4.414 3.578 7.992 7.991 7.992 4.414 0 7.992-3.578 7.992-7.992v-4.455h61.444v4.455c0 4.414 3.578 7.992 7.992 7.992s7.992-3.578 7.992-7.992v-4.455h16.098v56.325zm11.656-94.261v21.953h-27.753v-4.484c0-4.414-3.578-7.992-7.992-7.992s-7.992 3.578-7.992 7.992v4.484h-61.444v-4.484c0-4.414-3.578-7.992-7.992-7.992s-7.991 3.578-7.991 7.992v4.484h-27.781v-21.953zm-44.373 137.798h175.282c4.414 0 7.992 3.578 7.992 7.992s-3.578 7.992-7.992 7.992h-175.282c-4.414 0-7.992-3.578-7.992-7.992s3.578-7.992 7.992-7.992zm183.274 41.656c0 4.414-3.578 7.992-7.992 7.992h-153.385c-4.414 0-7.992-3.578-7.992-7.992s3.578-7.992 7.992-7.992h153.386c4.413.001 7.991 3.579 7.991 7.992zm-112.111-134.658c0-4.414 3.578-7.992 7.992-7.992h96.128c4.414 0 7.992 3.578 7.992 7.992s-3.578 7.992-7.992 7.992h-96.128c-4.415 0-7.992-3.578-7.992-7.992zm0 33.665c0-4.414 3.578-7.992 7.992-7.992h96.128c4.414 0 7.992 3.578 7.992 7.992s-3.578 7.992-7.992 7.992h-96.128c-4.415 0-7.992-3.578-7.992-7.992zm0 33.664c0-4.414 3.578-7.992 7.992-7.992h96.128c4.414 0 7.992 3.578 7.992 7.992s-3.578 7.992-7.992 7.992h-96.128c-4.415 0-7.992-3.578-7.992-7.992zm112.111 168.352c0 4.414-3.578 7.992-7.992 7.992h-155.479c-4.414 0-7.992-3.578-7.992-7.992s3.578-7.992 7.992-7.992h155.479c4.414 0 7.992 3.578 7.992 7.992zm0 33.663c0 4.414-3.578 7.992-7.992 7.992h-176.074c-4.414 0-7.992-3.578-7.992-7.992s3.578-7.992 7.992-7.992h176.075c4.413.001 7.991 3.579 7.991 7.992zm0-100.993c0 4.414-3.578 7.992-7.992 7.992h-144.22c-4.414 0-7.992-3.578-7.992-7.992s3.578-7.992 7.992-7.992h144.221c4.413.001 7.991 3.579 7.991 7.992zm0 33.665c0 4.414-3.578 7.992-7.992 7.992h-144.814c-4.414 0-7.992-3.578-7.992-7.992s3.578-7.992 7.992-7.992h144.814c4.414 0 7.992 3.578 7.992 7.992zm-309.043 97.216c-.604-2.282-1.726-4.332-3.25-6.041l7.032-12.193c10.858 3.694 22.064 5.487 33.185 5.486 35.854-.003 70.777-18.596 89.953-51.814 13.847-23.974 17.527-51.91 10.361-78.66-7.167-26.752-24.324-49.111-48.31-62.956h.001c-49.498-28.572-113.024-11.551-141.615 37.949-24.702 42.793-15.33 96.053 19.631 128.171l-7.289 12.621c-6.062-1.262-12.521 1.399-15.794 7.05l-27.384 47.443c-8.686 15.057-3.517 34.381 11.522 43.077.003.001.005.002.007.004 4.954 2.857 10.369 4.216 15.716 4.216 10.905 0 21.527-5.65 27.365-15.745l27.363-47.433c1.98-3.392 2.515-7.361 1.506-11.175zm-42.711 50.613c-4.288 7.419-13.822 9.966-21.252 5.678-7.412-4.29-9.957-13.821-5.672-21.247l26.766-46.371 26.923 15.545zm25.993-65.296-9.367-5.409 5.781-10.01c1.822 1.211 3.688 2.379 5.609 3.488 1.222.705 2.454 1.373 3.692 2.023zm-22.083-145.554c16.23-28.098 45.767-43.822 76.097-43.822 14.861 0 29.916 3.777 43.684 11.725h.001c20.286 11.71 34.798 30.622 40.86 53.249 6.062 22.625 2.95 46.253-8.764 66.531-11.71 20.288-30.619 34.799-53.239 40.86-22.623 6.063-46.253 2.949-66.541-8.764-41.872-24.17-56.271-77.904-32.098-119.779zm124.551 102.217c6.709-5.575 12.568-12.397 17.182-20.381 20.922-36.29 8.441-82.849-27.823-103.788 0 0-.001 0-.002-.001-36.258-20.923-82.805-8.443-103.763 27.822-10.14 17.573-12.833 38.044-7.582 57.641 4.113 15.356 12.735 28.717 24.716 38.663.077.066.154.131.234.195 3.25 2.676 6.731 5.116 10.451 7.261 11.929 6.893 24.972 10.169 37.853 10.169 17.586 0 34.863-6.116 48.586-17.459.05-.039.099-.08.148-.122zm-13.151-10.008c-18.606 13.6-44.247 15.829-65.444 3.578-1.904-1.098-3.727-2.297-5.478-3.574v-2.43c0-11.114 9.03-20.157 20.129-20.157h15.332c1.904 0 3.817-.055 5.667-.107 6.536-.188 12.706-.362 17.636 1.758 7.386 3.23 12.157 10.495 12.157 18.506v2.426zm-56.721-59.797c0-11.723 9.538-21.26 21.26-21.26 11.723 0 21.26 9.537 21.26 21.26 0 11.707-9.538 21.231-21.26 21.231s-21.26-9.524-21.26-21.231zm50.925 24.201c-.348-.149-.696-.282-1.045-.419 5.38-6.454 8.624-14.746 8.624-23.783 0-20.536-16.708-37.243-37.244-37.243s-37.243 16.708-37.243 37.243c0 9.035 3.241 17.325 8.619 23.778-9.698 3.857-17.34 11.797-20.8 21.693-3.824-5.561-6.714-11.794-8.513-18.509-4.145-15.475-2.019-31.639 5.986-45.512 11.11-19.224 31.32-29.982 52.071-29.982 10.159 0 20.452 2.581 29.86 8.009 28.636 16.535 38.491 53.303 21.971 81.955-.802 1.388-1.665 2.717-2.558 4.016-3.273-9.324-10.294-17.119-19.728-21.246z" fill="#126dfb"/></svg>