<svg class="h-5 w-5" viewBox="0 0 60 60" xmlns="http://www.w3.org/2000/svg"><g id="Colour"><path d="m21.447 59.47c-.169 0-.333-.086-.427-.24-.142-.231-.071-.534.157-.681l5.276-3.38-7.333 4.233c-.236.136-.534.062-.675-.17-.143-.229-.076-.53.148-.68l12.462-8.247-15.757 9.097c-.235.138-.536.06-.678-.174-.141-.233-.069-.536.161-.682l8.687-5.486-10.986 6.342c-.236.138-.535.06-.677-.173-.142-.231-.071-.534.157-.681l14.585-9.347-17.669 10.2c-.238.137-.54.059-.68-.177-.14-.234-.065-.538.167-.682l6.687-4.12-8.624 4.979c-.237.137-.539.058-.679-.175-.141-.234-.067-.537.164-.682l14.539-9.086-16.702 9.646c-.238.137-.54.059-.68-.177-.14-.234-.065-.538.167-.682l12.575-7.762-13.393 7.731c-.238.138-.539.059-.679-.176-.141-.233-.067-.537.164-.682l17.696-11.03-18.081 10.442c-.236.139-.538.06-.679-.175-.141-.233-.068-.536.162-.681l21.229-13.347-20.951 12.096c-.238.138-.541.057-.68-.177-.14-.235-.064-.54.169-.683l10.101-6.176-9.59 5.536c-.238.137-.539.058-.679-.175-.141-.234-.067-.538.164-.682l19.141-11.942-18.626 10.755c-.238.137-.541.058-.68-.178-.14-.235-.064-.539.169-.682l8.795-5.367-8.284 4.783c-.238.137-.54.059-.68-.177-.14-.234-.065-.538.168-.682l13.583-8.359-13.071 7.547c-.238.137-.539.058-.679-.176-.141-.233-.067-.537.164-.682l18.243-11.352-17.728 10.237c-.238.137-.541.058-.68-.178-.14-.235-.064-.539.169-.682l9.03-5.513-8.52 4.919c-.238.137-.54.059-.68-.177-.14-.234-.065-.538.167-.682l14.479-8.927-13.965 8.065c-.238.138-.539.059-.679-.176-.141-.234-.067-.537.165-.682l17.655-10.969-17.141 9.898c-.235.139-.537.06-.679-.175-.141-.233-.067-.537.163-.682l20.302-12.712-19.786 11.423c-.238.138-.541.058-.68-.178-.14-.235-.064-.539.17-.682l7.588-4.622-7.078 4.086c-.238.137-.54.059-.68-.177s-.065-.539.168-.682l12.42-7.626-11.908 6.875c-.238.137-.54.058-.681-.179-.14-.235-.062-.54.172-.682l1.636-.989-1.127.65c-.238.138-.539.059-.679-.176-.141-.233-.067-.537.164-.681l18.836-11.742-18.321 10.581c-.238.137-.541.058-.68-.178-.14-.235-.064-.539.17-.682l7.434-4.527-6.924 3.997c-.238.138-.54.059-.68-.177-.14-.234-.065-.538.167-.682l14.508-8.949-13.995 8.081c-.235.139-.537.06-.679-.175-.141-.233-.067-.537.163-.682l19.178-12.01-18.662 10.775c-.238.137-.54.058-.679-.176-.141-.234-.066-.538.166-.682l13.434-8.312-12.921 7.461c-.238.138-.539.059-.679-.176-.141-.234-.067-.537.165-.682l12.813-7.965-12.299 7.101c-.238.137-.539.058-.679-.176-.141-.234-.067-.537.165-.682l9.896-6.149-9.382 5.417c-.235.139-.536.06-.678-.173-.141-.232-.07-.535.159-.682l13.46-8.577-12.941 7.472c-.235.136-.534.061-.676-.171-.142-.23-.074-.532.152-.681l13.759-8.989-13.235 7.641c-.235.139-.537.06-.679-.175-.141-.233-.068-.536.162-.681l4.089-2.571-3.572 2.062c-.236.135-.532.061-.675-.169-.143-.229-.077-.53.147-.68l10.16-6.78-9.632 5.562c-.232.137-.53.062-.674-.167-.143-.229-.079-.528.144-.68l8.109-5.497-7.579 4.376c-.232.137-.53.062-.674-.167-.143-.229-.079-.528.144-.68l5.181-3.511-4.65 2.685c-.228.133-.521.063-.667-.156-.146-.22-.096-.516.115-.675l6.336-4.803-5.784 3.339c-.225.133-.514.066-.662-.149-.147-.216-.105-.509.098-.672l4.089-3.299-3.524 2.034c-.218.129-.501.07-.653-.137-.15-.206-.122-.492.065-.665l2.359-2.161-1.703.983c-.217.127-.495.071-.647-.129-.152-.199-.133-.481.045-.658l1.019-1.013c-.102-.04-.191-.113-.25-.216-.139-.239-.057-.545.183-.683l2.376-1.372c.215-.127.494-.072.647.129.152.199.133.481-.045.658l-.499.496 2.333-1.347c.219-.128.501-.069.653.137.15.206.122.492-.065.665l-2.36 2.161 5.13-2.961c.225-.132.514-.066.662.149.147.216.105.509-.098.672l-4.089 3.3 7.138-4.121c.227-.135.519-.064.667.156.146.22.096.516-.115.675l-6.337 4.804 9.761-5.635c.234-.136.531-.061.674.167.143.229.079.528-.144.68l-5.181 3.511 7.548-4.358c.234-.136.531-.061.674.167.143.229.079.528-.144.68l-8.104 5.493 10.983-6.34c.233-.137.531-.061.675.169.143.229.077.53-.147.68l-10.161 6.781 13.214-7.63c.236-.136.537-.06.678.175.142.233.069.536-.161.681l-4.101 2.578 5.948-3.434c.235-.138.535-.06.676.171.142.23.074.532-.152.681l-13.754 8.986 17.04-9.838c.236-.136.537-.059.678.173s.07.535-.159.682l-13.465 8.58 16.341-9.435c.236-.139.537-.06.679.176.141.234.067.537-.165.682l-9.907 6.156 12.148-7.014c.237-.139.537-.06.679.176.141.234.067.537-.165.682l-12.798 7.955 14.796-8.543c.236-.139.539-.06.679.176.141.234.066.538-.166.682l-13.443 8.317 14.319-8.268c.237-.137.538-.058.679.175s.067.537-.163.682l-19.162 11.999 19.588-11.309c.237-.139.539-.06.68.177.14.234.065.538-.167.682l-14.514 8.953 14.208-8.203c.236-.139.54-.059.68.178.14.235.064.539-.17.682l-7.423 4.521 6.914-3.991c.237-.139.537-.06.679.176.141.233.067.537-.164.682l-18.843 11.745 18.329-10.582c.236-.139.54-.059.681.179.14.235.062.54-.172.682l-1.655 1.001 1.147-.662c.236-.139.538-.06.68.177.14.235.065.539-.168.682l-12.432 7.633 11.921-6.882c.237-.139.54-.059.68.178.14.235.064.539-.17.682l-7.577 4.615 7.068-4.08c.237-.136.539-.058.679.175.141.233.067.537-.163.682l-20.297 12.709 19.782-11.421c.236-.139.537-.06.679.176.141.234.067.537-.165.682l-17.649 10.965 17.137-9.894c.237-.138.539-.06.68.177.14.234.065.538-.167.682l-14.472 8.922 13.96-8.06c.236-.139.54-.059.68.178.14.235.064.539-.169.682l-9.044 5.521 8.534-4.927c.236-.139.537-.06.679.176.141.233.067.537-.164.682l-18.237 11.348 17.724-10.232c.237-.139.539-.06.68.177.14.234.065.538-.168.682l-13.593 8.365 13.082-7.553c.236-.138.54-.059.68.178.14.235.064.539-.169.682l-8.784 5.36 8.274-4.777c.236-.139.537-.059.679.175.141.234.067.538-.164.682l-19.147 11.946 18.634-10.758c.237-.139.54-.059.68.177s.064.54-.169.683l-10.114 6.184 9.604-5.544c.237-.137.539-.06.679.175.141.233.068.536-.162.681l-21.227 13.345 20.711-11.957c.236-.139.537-.06.679.176.141.233.067.537-.164.682l-17.692 11.027 17.179-9.918c.237-.138.539-.059.68.176.14.235.065.539-.167.683l-12.579 7.765 12.067-6.967c.236-.139.538-.059.679.175s.067.537-.164.682l-14.543 9.089 14.029-8.1c.236-.139.538-.06.68.177.14.234.065.538-.167.682l-6.687 4.12 6.175-3.564c.236-.137.537-.059.677.173.142.231.071.534-.157.681l-14.586 9.348 14.067-8.121c.237-.136.537-.059.678.174s.069.536-.161.682l-8.681 5.483 8.165-4.714c.233-.137.532-.062.675.17.143.229.076.53-.148.68l-12.458 8.245 11.933-6.89c.236-.137.537-.06.677.173.142.231.071.534-.157.681l-5.281 3.383 4.763-2.749c.235-.136.536-.061.677.172.142.231.072.534-.156.681l-3.932 2.535 3.412-1.97c.233-.137.531-.062.675.169.143.229.077.53-.147.68l-5.226 3.479 4.699-2.713c.235-.136.534-.06.676.171s.074.532-.152.681l-.978.639.455-.263c.235-.135.528-.061.673.165.144.227.082.526-.139.679l-3.41 2.358 2.877-1.66c.226-.134.515-.066.663.151.147.216.104.509-.102.672l-4.545 3.621 3.984-2.3c.225-.132.516-.065.662.15.148.215.104.508-.099.672l-1.979 1.594 1.417-.817c.216-.128.497-.072.649.132.152.202.13.485-.053.661l-1.257 1.212.661-.382c.194-.115.442-.082.604.079.16.16.192.407.08.604l-.504.874c.188-.023.399.062.505.245.138.239.056.545-.184.684l-1.398.807c-.196.111-.442.08-.604-.08-.16-.16-.192-.407-.08-.604l.468-.812-2.589 1.494c-.217.127-.497.07-.649-.132s-.13-.485.053-.661l1.257-1.212-3.473 2.005c-.225.132-.516.065-.662-.15-.148-.215-.104-.508.099-.672l1.979-1.593-4.185 2.415c-.227.132-.516.064-.663-.151s-.104-.509.102-.672l4.546-3.621-7.7 4.444c-.232.136-.527.061-.673-.165-.144-.227-.082-.526.139-.679l3.406-2.356-5.543 3.2c-.235.136-.534.06-.676-.171s-.074-.532.152-.681l.977-.638-2.58 1.489c-.235.136-.532.061-.675-.169s-.077-.53.147-.68l5.226-3.479-7.495 4.327c-.235.136-.535.061-.677-.172-.142-.231-.072-.534.156-.681l3.933-2.535-5.869 3.388c-.079.046-.165.067-.25.067z" fill="#3e506d"/><path d="m18.4 16.47c-.166 0-.329-.083-.424-.234-.143-.228-.08-.528.143-.679l3.346-2.274-5.404 3.12c-.233.135-.525.062-.671-.162-.145-.226-.086-.523.132-.678l5.316-3.775-7.995 4.615c-.229.135-.526.062-.671-.162-.145-.226-.086-.523.132-.678l5.32-3.779-8.001 4.619c-.228.136-.521.062-.668-.157-.146-.222-.093-.518.119-.676l6.511-4.86-9.354 5.4c-.229.135-.525.062-.67-.161s-.089-.521.127-.677l5.471-3.96-5.857 3.381c-.226.134-.519.064-.665-.154s-.099-.514.109-.674l4.739-3.654-4.204 2.427c-.223.132-.511.067-.659-.145s-.111-.502.086-.67l3.046-2.581-2.473 1.427c-.225.132-.512.067-.66-.147-.148-.213-.109-.504.091-.67l.531-.44c-.193.09-.428.048-.576-.111-.159-.169-.181-.426-.052-.619l.798-1.199c-.198.037-.418-.051-.527-.241-.139-.239-.057-.545.183-.683l1.658-.957c.2-.118.456-.079.614.091.159.169.181.426.052.619l-.763 1.147 3.221-1.859c.224-.131.512-.067.66.147.148.213.109.504-.091.67l-.522.434 2.167-1.251c.224-.131.511-.067.659.145s.111.502-.086.67l-3.047 2.582 5.885-3.396c.226-.133.52-.065.665.154.146.219.099.514-.109.674l-4.739 3.654 7.765-4.482c.229-.135.523-.063.67.161.145.223.089.521-.127.677l-5.47 3.96 8.311-4.798c.229-.134.523-.062.668.157.146.222.093.518-.119.676l-6.511 4.86 9.862-5.693c.233-.135.525-.062.671.162.145.226.086.523-.132.678l-5.32 3.779 8.001-4.619c.232-.135.526-.062.671.162.145.226.086.523-.132.678l-5.316 3.775 7.995-4.615c.233-.135.531-.062.674.167.143.228.08.528-.143.679l-3.346 2.274 5.404-3.12c.229-.134.522-.062.668.158s.093.518-.119.676l-6.477 4.823 9.718-5.609c.232-.136.527-.062.671.163.145.226.086.524-.133.679l-4.973 3.502 5.772-3.332c.228-.136.524-.062.67.16.145.224.089.521-.127.678l-4.418 3.199 4.103-2.368c.223-.13.51-.067.659.146.148.212.111.502-.087.669l-4.241 3.576 3.678-2.123c.223-.13.509-.066.657.143.149.211.114.5-.08.669l-1.724 1.487 1.152-.665c.199-.119.455-.079.616.092.158.171.179.429.048.621l-1.022 1.509.366-.211c.239-.14.545-.057.683.183.139.239.057.545-.183.683l-2.25 1.299c-.201.117-.457.079-.616-.092-.158-.171-.179-.429-.048-.621l1.021-1.509-3.848 2.222c-.223.132-.508.067-.657-.143-.149-.211-.114-.5.08-.669l1.724-1.487-3.982 2.299c-.224.131-.511.066-.659-.146s-.111-.502.087-.669l4.241-3.575-7.604 4.39c-.229.134-.525.062-.67-.16-.145-.224-.089-.521.127-.678l4.42-3.201-6.996 4.039c-.232.135-.527.062-.671-.163-.145-.226-.086-.524.133-.679l4.977-3.505-7.53 4.347c-.228.136-.522.063-.668-.158s-.093-.518.119-.676l6.476-4.822-9.799 5.656c-.079.046-.165.067-.25.067z" fill="#6fc44a"/><path d="m8.461 16.47c-.165 0-.325-.082-.421-.229-.145-.226-.086-.523.132-.678l1-.711c-.157-.006-.309-.086-.4-.227-.145-.223-.091-.521.124-.677l2.625-1.92-.252.145c-.229.132-.52.063-.667-.156-.146-.22-.096-.516.115-.675l1.833-1.39c-.12-.016-.234-.075-.317-.175-.155-.187-.155-.458.002-.644l2.008-2.372c-.136-.239-.054-.543.185-.68l.839-.484c.209-.122.479-.075.634.112s.155.458-.002.644l-1.046 1.236 3.451-1.992c.227-.134.519-.064.667.156.146.22.096.516-.115.675l-1.16.88 1.345-.776c.229-.133.523-.063.669.159.145.223.091.521-.124.677l-2.629 1.923.264-.151c.229-.136.526-.062.671.162.145.226.086.523-.132.678l-1.568 1.114c.107.027.207.091.278.186.151.202.128.486-.055.661l-2.19 2.096c.098.04.183.112.239.211.139.239.057.545-.183.683l-2.552 1.473c-.217.127-.498.07-.65-.133-.151-.202-.128-.486.055-.661l1.59-1.521-4.011 2.314c-.079.046-.165.067-.25.067z" fill="#9fe67e"/><path d="m19.824 16.47c-.166 0-.328-.083-.423-.233-.144-.228-.081-.527.141-.679l1.168-.801-2.099 1.211c-.233.136-.529.062-.673-.166s-.081-.527.14-.679l3.254-2.232-.948.547c-.224.132-.511.065-.659-.146-.148-.212-.111-.502.087-.669l3.963-3.342-.807.465c-.21.124-.479.074-.634-.112-.156-.188-.154-.459.003-.645l1.902-2.232c-.132-.238-.049-.539.188-.675l.839-.484c.21-.122.478-.075.634.112s.154.459-.003.645l-.917 1.076 3.175-1.833c.224-.131.511-.066.659.146s.111.502-.087.669l-3.963 3.342 7.2-4.156c.233-.135.53-.061.673.166.144.228.081.527-.14.679l-3.264 2.239 2.187-1.262c.234-.135.529-.062.673.166s.081.527-.141.679l-1.795 1.23c.14.012.335.074.434.226.146.222.093.518-.12.676l-1.789 1.328c.129.017.251.083.334.193.152.2.133.482-.047.659l-1.87 1.843c.054.04.101.091.136.152.139.239.057.545-.183.683l-1.988 1.147c-.216.125-.495.07-.647-.13s-.133-.482.047-.659l1.02-1.005-3.107 1.794c-.227.136-.521.063-.668-.158-.146-.222-.093-.518.12-.676l1.075-.798-2.828 1.632c-.079.046-.165.067-.25.067z" fill="#9fe67e"/><path d="m39.754 43.462c-.164 0-.324-.081-.42-.229-.145-.224-.089-.521.127-.677l6.594-4.764-9.082 5.243c-.232.135-.529.062-.672-.165-.144-.227-.083-.525.137-.679l8.265-5.739-10.111 5.838c-.234.138-.535.06-.677-.173s-.071-.534.157-.681l2.181-1.396-2.9 1.675c-.235.136-.533.061-.676-.17-.142-.229-.075-.531.15-.68l7.958-5.257-8.978 5.183c-.235.139-.537.06-.679-.175-.141-.233-.068-.536.163-.682l.424-.266-.798.46c-.235.137-.535.06-.676-.171-.142-.231-.074-.532.152-.681l8.3-5.409-8.987 5.188c-.235.138-.537.061-.679-.175-.141-.233-.068-.536.163-.682l1.686-1.058-1.922 1.109c-.235.139-.535.06-.677-.173-.142-.231-.072-.534.157-.681l6.897-4.424-7.24 4.18c-.235.137-.535.061-.676-.171-.142-.23-.074-.532.152-.681l9.834-6.424-10.198 5.888c-.234.136-.532.061-.675-.169s-.077-.53.147-.68l11.81-7.863-12.111 6.992c-.235.135-.532.061-.675-.169-.143-.229-.077-.529.147-.68l11.611-7.753-11.695 6.752c-.235.136-.531.06-.674-.168s-.079-.528.144-.679l11.643-7.864-11.494 6.635c-.236.136-.536.061-.677-.172-.142-.232-.072-.534.156-.682l5.153-3.316-4.727 2.729c-.236.135-.532.06-.675-.169s-.077-.53.147-.68l8.029-5.353-7.409 4.277c-.232.136-.529.062-.673-.166-.144-.227-.082-.526.14-.679l8.096-5.559-7.133 4.118c-.236.137-.534.06-.676-.171s-.074-.533.153-.681l1.068-.696-.029.017c-.232.136-.528.062-.673-.165-.143-.227-.082-.526.139-.679l3.642-2.521-2.029 1.171c-.225.133-.513.065-.661-.148s-.107-.506.094-.671l3.464-2.838c-.167-.006-.328-.095-.417-.25-.139-.239-.057-.545.183-.683l4.677-2.699c.225-.132.513-.065.661.148s.107.506-.094.671l-3.103 2.542 7.3-4.214c.234-.136.528-.061.673.165.143.227.082.526-.139.679l-3.643 2.521 5.556-3.207c.235-.137.534-.06.676.171s.074.533-.153.681l-1.054.687 2.108-1.217c.231-.135.529-.062.673.166.144.227.082.526-.14.679l-8.098 5.56 9.771-5.641c.233-.138.531-.062.675.169.143.229.077.53-.147.68l-8.038 5.358 9.222-5.323c.235-.137.535-.061.677.172s.072.534-.156.682l-5.153 3.315 5.831-3.365c.233-.137.53-.061.674.168.143.228.079.528-.144.679l-11.637 7.86 12.711-7.338c.233-.138.532-.061.675.169.143.229.077.529-.147.68l-11.61 7.752 12.381-7.147c.233-.137.531-.062.675.169.143.229.077.53-.147.68l-11.813 7.866 12.363-7.138c.235-.136.534-.06.676.171s.074.532-.152.681l-9.836 6.425 10.07-5.813c.238-.137.537-.06.677.173.142.231.072.534-.157.681l-6.892 4.42 6.894-3.979c.237-.137.538-.06.679.175.141.233.068.536-.163.682l-1.676 1.052 1.477-.853c.236-.138.535-.06.676.171.142.231.074.532-.152.681l-8.303 5.411 8.104-4.679c.238-.137.538-.06.679.175.141.233.068.536-.163.682l-.434.271.044-.024c.233-.137.532-.062.676.17.142.229.075.531-.15.68l-7.949 5.251 7.446-4.299c.236-.137.536-.059.677.173.142.232.071.534-.157.681l-2.186 1.399 1.553-.896c.229-.136.528-.062.672.165s.083.525-.137.679l-8.267 5.74 7.183-4.146c.229-.135.524-.063.67.161.145.224.089.521-.127.677l-6.593 4.763 4.849-2.799c.229-.135.528-.062.672.164s.084.524-.135.678l-1.789 1.253c.175-.025.374.075.473.248.139.239.057.545-.183.683l-9.274 5.354c-.232.135-.528.062-.672-.164s-.084-.524.135-.678l1.326-.929-3.383 1.953c-.078.046-.165.067-.25.067z" fill="#fcb434"/><path d="m39.652 39.456c-.164 0-.324-.081-.419-.228-.146-.223-.09-.521.125-.677l3.229-2.351-4.984 2.878c-.229.134-.524.062-.67-.161-.145-.224-.089-.521.127-.677l5.582-4.026-7.116 4.108c-.229.135-.527.062-.671-.163-.145-.225-.086-.523.132-.678l6.753-4.775-7.947 4.588c-.235.137-.534.06-.676-.171s-.074-.532.152-.681l2.074-1.356-2.484 1.435c-.235.137-.534.061-.677-.172-.142-.23-.073-.532.154-.68l1.729-1.123-2.012 1.161c-.235.137-.535.061-.677-.172-.142-.231-.072-.534.155-.681l1.241-.801-1.403.81c-.232.136-.528.062-.672-.164-.144-.227-.084-.525.136-.679l8.38-5.845-8.806 5.084c-.235.135-.533.06-.676-.17-.142-.23-.075-.531.15-.68l4.097-2.701-4.076 2.353c-.234.136-.532.06-.675-.168-.143-.229-.078-.529.146-.68l5.329-3.577-5.193 2.998c-.232.137-.528.062-.673-.166-.144-.228-.081-.527.14-.679l6.079-4.172-5.756 3.322c-.236.136-.532.061-.675-.169s-.077-.53.147-.68l2.673-1.781-2.13 1.229c-.227.135-.523.063-.669-.16s-.091-.52.124-.677l5.836-4.254-4.849 2.799c-.228.134-.522.063-.668-.158s-.093-.519.12-.676l3.463-2.565-1.918 1.107c-.225.133-.516.066-.662-.149-.147-.216-.105-.509.099-.673l2.24-1.806c-.09-.042-.167-.11-.22-.202-.139-.239-.057-.545.183-.683l4.031-2.327c.225-.131.516-.066.662.149.147.216.105.509-.099.673l-1.154.931 3.935-2.271c.229-.134.522-.062.668.158.146.222.093.519-.12.676l-3.462 2.564 5.386-3.109c.229-.134.524-.062.669.16.146.223.091.52-.124.677l-5.837 4.255 7.485-4.321c.234-.138.531-.061.675.169.143.229.077.53-.147.68l-2.67 1.779 3.373-1.947c.234-.135.53-.062.673.166.144.228.081.527-.14.679l-6.078 4.172 6.903-3.985c.234-.137.531-.061.675.168.143.229.078.529-.146.68l-5.332 3.579 5.847-3.375c.234-.137.532-.061.676.17.142.23.075.531-.15.68l-4.091 2.697 4.347-2.509c.23-.135.528-.062.672.164s.084.525-.136.679l-8.382 5.846 8.756-5.055c.235-.137.535-.061.677.172.142.231.072.534-.155.681l-1.235.798 1.114-.644c.236-.137.534-.061.677.172.142.23.073.532-.154.68l-1.733 1.126 1.509-.871c.236-.137.534-.06.676.171s.074.532-.152.681l-2.074 1.355 1.745-1.007c.229-.136.527-.062.671.163.145.225.086.523-.132.678l-6.75 4.773 6.245-3.605c.229-.135.524-.062.67.161.145.224.089.521-.127.677l-5.585 4.028 4.641-2.679c.228-.136.524-.062.669.16.146.223.09.521-.125.677l-3.227 2.349 1.813-1.047c.224-.132.512-.066.66.146s.109.505-.091.671l-2.501 2.081c.123.032.234.113.303.232.139.239.057.545-.183.683l-4.03 2.327c-.223.131-.512.067-.66-.146s-.109-.505.091-.671l1.836-1.527-4.938 2.851c-.078.046-.165.067-.25.067z" fill="#fdcf14"/><path d="m53.5 51.47c-.172 0-.341-.09-.433-.25-.139-.239-.057-.545.183-.683l5.179-2.99c.21-.125.483-.075.64.119.154.191.146.468-.02.65l-.562.616.213-.122c.237-.14.545-.058.683.183.139.239.057.545-.183.683l-2.991 1.727c-.213.123-.484.074-.64-.119-.154-.191-.146-.468.02-.65l.561-.615-2.399 1.385c-.079.046-.165.067-.25.067z" fill="#fdcf14"/><path d="m33.208 59.47c-.169 0-.334-.086-.428-.241-.141-.233-.069-.536.16-.682l.895-.565-2.462 1.421c-.234.136-.533.061-.674-.168-.143-.229-.079-.529.145-.68l10.953-7.365-13.642 7.876c-.238.137-.538.058-.679-.176s-.067-.537.164-.681l.003-.002-.16.092c-.233.136-.53.061-.674-.167-.143-.229-.079-.529.144-.68l10.25-6.928-8.45 4.878c-.236.137-.534.06-.676-.171s-.074-.532.152-.68l3.281-2.148-4.963 2.865c-.203.119-.461.078-.62-.097-.158-.174-.174-.435-.037-.626l1.377-1.933-1.962 1.132c-.209.123-.477.076-.633-.111-.156-.186-.156-.457 0-.643l.453-.54c-.099-.041-.185-.113-.242-.213-.139-.239-.057-.545.183-.683l1.654-.956c.209-.123.477-.076.633.111.156.186.156.457 0 .643l-.089.106 1.494-.862c.202-.119.461-.079.62.097.158.174.174.435.037.626l-1.377 1.933 18.457-10.655c.236-.137.535-.06.676.171.142.23.074.532-.152.68l-3.285 2.15 5.199-3.001c.233-.135.531-.06.674.167.143.229.079.529-.144.68l-10.249 6.927 13.466-7.773c.237-.139.537-.06.679.176.139.23.069.53-.156.676l.754-.435c.233-.137.532-.061.674.168.143.229.079.529-.145.68l-10.957 7.368 11.174-6.451c.236-.137.537-.06.678.174s.069.536-.16.682l-1.432.905c.198-.039.406.043.521.222.144.225.084.523-.135.678l-7.796 5.478 10.839-6.257c.235-.136.534-.06.676.171s.074.533-.153.681l-4.64 3.022c.124.026.238.1.313.213.146.22.096.516-.115.675l-4.094 3.099 5.204-3.004c.23-.135.524-.063.67.161.145.224.088.521-.128.678l-1.629 1.17 1.384-.798c.221-.129.504-.069.655.14.15.207.119.495-.072.666l-2.891 2.584 2.599-1.5c.21-.124.479-.073.637.115.155.189.15.463-.011.646l-1.441 1.646 2.326-1.343c.215-.128.495-.071.648.13.152.201.132.483-.048.659l-.214.21c.195-.026.39.067.493.246.139.239.057.545-.183.683l-3.106 1.793c-.216.126-.495.07-.648-.13-.152-.201-.132-.483.048-.659l.099-.097-1.535.886c-.21.124-.48.074-.637-.115-.155-.189-.15-.463.011-.646l1.441-1.646-4.17 2.407c-.218.13-.503.07-.655-.14-.15-.207-.119-.495.072-.666l2.89-2.583-5.87 3.389c-.229.134-.524.062-.67-.161-.145-.224-.088-.521.128-.678l1.632-1.173-3.485 2.012c-.229.133-.521.063-.667-.156s-.096-.516.115-.675l4.092-3.097-6.805 3.928c-.235.136-.534.06-.676-.171s-.074-.533.153-.681l2.646-1.724-4.461 2.575c-.229.135-.526.062-.672-.164-.144-.225-.084-.523.135-.678l7.796-5.479-10.947 6.32c-.079.046-.165.067-.25.067z" fill="#fdcf14"/><path d="m30.658 51.438c-.164 0-.325-.081-.42-.229-.145-.224-.088-.521.129-.677l2.739-1.962-3.463 1.999c-.228.133-.521.063-.666-.155-.146-.22-.097-.516.113-.675l3.082-2.347-2.848 1.644c-.228.132-.521.063-.666-.155-.146-.22-.097-.515.112-.675l1.146-.876-.126.072c-.224.132-.513.065-.661-.147-.148-.214-.107-.506.093-.671l.13-.107-1.604.926c-.205.122-.469.076-.628-.104-.156-.181-.163-.448-.016-.637l1.494-1.908-3.007 1.735c-.194.114-.438.083-.599-.074-.16-.155-.197-.398-.092-.596l.793-1.473-.131.075c-.24.138-.546.057-.683-.183-.139-.239-.057-.545.183-.683l1.656-.956c.193-.113.438-.083.599.074.16.155.197.398.092.596l-.793 1.473 3.716-2.145c.206-.12.47-.076.628.104.156.181.163.448.016.637l-1.494 1.908 4.59-2.649c.223-.131.512-.065.661.147.148.214.107.506-.093.671l-.132.108 1.606-.927c.227-.135.521-.063.666.155.146.22.097.515-.112.675l-1.142.872 2.949-1.702c.227-.135.52-.063.666.155.146.22.097.516-.113.675l-3.083 2.348 5.505-3.178c.229-.135.525-.063.67.162.145.224.088.521-.129.677l-2.739 1.962 4.852-2.801c.239-.14.546-.057.683.183.139.239.057.545-.183.683l-13.698 7.908c-.078.046-.165.067-.25.067z" fill="#fdcf14"/><path d="m35.291 51.47c-.157 0-.312-.074-.408-.212-.149-.211-.112-.501.084-.669l.441-.375-2.06 1.188c-.214.127-.492.071-.646-.127s-.136-.479.04-.657l1.28-1.294-3.414 1.971c-.216.126-.495.071-.648-.131-.152-.201-.131-.484.05-.66l1.068-1.04-1.562.901c-.197.114-.445.08-.604-.08-.16-.161-.191-.41-.076-.605l.744-1.267-.015.008c-.24.139-.546.056-.683-.183-.139-.239-.057-.545.183-.683l1.656-.956c.196-.116.445-.081.604.08.16.161.191.41.076.605l-.744 1.267 3.387-1.954c.215-.128.495-.072.648.131.152.201.131.484-.05.66l-1.066 1.038 3.169-1.829c.216-.126.492-.07.646.127.153.198.136.479-.04.657l-1.281 1.295 3.603-2.079c.224-.13.51-.067.658.145.149.211.112.501-.084.669l-.44.375 2.059-1.188c.213-.125.486-.073.641.12s.145.471-.023.652l-1.404 1.52 3.971-2.292c.207-.123.474-.075.631.109.156.184.159.453.006.64l-1.49 1.821 4.453-2.57c.206-.122.473-.076.63.107.156.183.16.451.01.639l-1.493 1.853 4.501-2.599c.214-.125.491-.072.645.126.153.197.138.478-.037.656l-1.31 1.341 3.678-2.123c.204-.119.464-.077.622.099s.171.438.032.629l-1.481 2.029 3.725-2.149c.206-.12.47-.075.627.104.157.181.164.447.017.636l-1.02 1.305.915-.527c.238-.14.546-.057.683.183.139.239.057.545-.183.683l-3.144 1.814c-.205.121-.469.077-.627-.104-.157-.181-.164-.447-.017-.636l1.02-1.305-3.544 2.045c-.204.12-.464.077-.622-.099s-.171-.438-.032-.629l1.481-2.029-4.776 2.757c-.214.126-.49.072-.645-.126-.153-.197-.138-.478.037-.656l1.31-1.341-3.678 2.123c-.207.121-.474.076-.63-.107s-.16-.451-.01-.639l1.494-1.853-4.503 2.599c-.209.121-.475.075-.631-.109s-.159-.453-.006-.64l1.49-1.821-4.452 2.57c-.213.125-.486.072-.641-.12-.154-.193-.145-.471.023-.652l1.404-1.52-3.971 2.292c-.078.046-.165.067-.25.067z" fill="#fcb434"/><path d="m45.935 59.47c-.157 0-.312-.075-.409-.213-.148-.212-.111-.502.087-.669l.375-.317-1.961 1.132c-.216.126-.496.07-.648-.13-.152-.201-.132-.483.049-.66l1.2-1.177-3.408 1.967c-.218.13-.5.07-.653-.137-.15-.206-.123-.492.065-.664l.94-.863-2.884 1.664c-.218.13-.502.07-.652-.136-.151-.205-.124-.491.063-.664l.974-.9-2.945 1.7c-.214.127-.493.071-.646-.128-.152-.199-.135-.48.043-.658l1.261-1.264-3.552 2.05c-.218.13-.501.07-.653-.137-.15-.205-.123-.491.065-.664l.949-.873-2.9 1.674c-.219.13-.504.069-.654-.139-.15-.207-.12-.494.069-.666l.839-.754-2.44 1.408c-.217.125-.495.07-.647-.13s-.133-.482.047-.659l1.058-1.042-1.488.859c-.199.115-.45.081-.609-.085-.159-.164-.187-.416-.065-.611l.702-1.132c-.224.09-.494.006-.62-.214-.139-.239-.057-.545.183-.683l1.656-.956c.197-.117.449-.082.609.085.159.164.187.416.065.611l-.696 1.123 3.155-1.821c.215-.128.494-.071.647.13.152.2.133.482-.047.659l-1.059 1.042 3.173-1.831c.22-.128.505-.069.654.139.15.207.12.494-.069.666l-.84.755 2.703-1.56c.22-.127.502-.069.653.137.15.205.123.491-.065.664l-.948.872 2.898-1.673c.216-.125.494-.071.646.128s.135.48-.043.658l-1.261 1.264 3.552-2.05c.22-.127.502-.069.652.136.151.205.124.491-.063.664l-.975.901 2.947-1.701c.219-.127.501-.069.653.137.15.206.123.492-.065.664l-.94.863 2.884-1.664c.214-.128.495-.071.648.13.152.201.132.483-.049.66l-1.199 1.176 3.406-1.966c.223-.13.51-.065.659.146.148.212.111.502-.087.669l-.375.317 1.961-1.132c.211-.125.483-.074.639.118.154.19.147.466-.017.648l-1.437 1.598 3.819-2.205c.21-.124.482-.073.638.117.155.189.149.464-.014.647l-1.305 1.468 1.789-1.033c.204-.119.466-.078.624.101.157.177.169.44.027.631l-.564.756c.174.013.355.085.45.25.139.239.057.545-.183.683l-1.778 1.026c-.203.12-.466.078-.624-.101-.157-.177-.169-.44-.027-.631l.475-.637-2.369 1.368c-.211.124-.482.073-.638-.117-.155-.189-.149-.464.014-.647l1.306-1.468-3.867 2.232c-.212.123-.484.073-.639-.118-.154-.19-.147-.466.017-.648l1.437-1.598-4.097 2.364c-.078.046-.165.067-.25.067z" fill="#fcb434"/><g fill="#505f75"><path d="m6.993 24.47c-.151 0-.301-.069-.398-.198-.152-.2-.131-.483.049-.659l.873-.854-2.076 1.198c-.214.125-.49.073-.644-.124-.153-.196-.14-.475.032-.654l.922-.962-.471.271c-.196.116-.447.081-.606-.082-.16-.162-.189-.412-.072-.607l.366-.612c-.129-.03-.246-.112-.317-.236-.139-.239-.057-.545.183-.683l1.161-.67c.197-.115.446-.082.606.082.16.162.189.412.072.607l-.223.371 1.839-1.061c.214-.126.49-.072.644.124s.14.475-.032.654l-.921.961 2.476-1.429c.215-.127.495-.071.648.131.152.2.131.483-.049.659l-.872.853.537-.31c.208-.122.477-.076.633.111.156.186.156.456 0 .643l-.311.37c.146.021.28.106.359.244.139.239.057.545-.183.683l-1.923 1.11c-.209.122-.477.076-.633-.111-.156-.186-.156-.456 0-.643l.107-.128-1.527.882c-.078.046-.164.067-.25.067z"/><path d="m8.122 34.47c-.146 0-.292-.064-.39-.187-.154-.192-.146-.468.021-.65l.678-.744-2.512 1.45c-.214.127-.492.072-.646-.128-.152-.198-.135-.479.042-.657l2.574-2.586-2.608 1.506c-.223.132-.509.068-.659-.145-.148-.212-.111-.502.086-.669l.525-.447c-.179.08-.39.047-.537-.086-.16-.145-.21-.377-.122-.574l.606-1.362c-.205.043-.42-.05-.529-.24-.139-.239-.057-.545.183-.683l1.161-.67c.188-.108.423-.084.585.062.16.145.21.377.122.574l-.588 1.32 3.389-1.956c.223-.131.509-.067.659.145.148.212.111.502-.086.669l-.512.435 1.086-.626c.216-.125.494-.071.646.128.152.198.135.479-.042.657l-2.574 2.586 2.04-1.178c.211-.124.484-.075.64.119.154.192.146.468-.021.65l-.677.743.058-.033c.238-.14.545-.057.683.183.139.239.057.545-.183.683l-2.848 1.645c-.078.046-.164.067-.25.067z"/><path d="m9.27 44.47c-.129 0-.256-.05-.353-.146-.16-.159-.193-.405-.082-.602l.789-1.386-3.546 2.046c-.225.132-.515.066-.662-.149s-.105-.507.097-.672l.239-.193-.449.259c-.219.129-.504.07-.654-.139-.15-.207-.12-.494.07-.666l1.977-1.778-1.415.817c-.218.13-.504.069-.654-.139-.15-.207-.12-.494.069-.665l.395-.356c-.145.025-.3-.03-.41-.14-.16-.158-.195-.403-.086-.601l.427-.765c-.149-.019-.289-.105-.37-.246-.139-.239-.057-.545.183-.683l1.161-.67c.195-.114.44-.082.601.076s.195.403.086.601l-.33.591 2.197-1.268c.221-.128.505-.069.654.139.15.207.12.494-.069.665l-.249.225 1.445-.834c.22-.128.505-.069.654.139.15.207.12.494-.07.666l-1.979 1.779 1.785-1.03c.224-.132.514-.066.662.149.147.215.105.507-.097.672l-.398.322c.156-.027.318.022.436.139.16.159.193.405.082.602l-.789 1.386.104-.06c.238-.14.545-.057.683.183.139.239.057.545-.183.683l-1.7.981c-.078.046-.164.067-.25.067z"/><path d="m8.914 54.47c-.13 0-.259-.051-.355-.148-.159-.161-.19-.41-.075-.605l1.089-1.846-3.962 2.287c-.227.131-.517.065-.663-.151-.147-.216-.104-.51.102-.673l.367-.292-.136.078c-.218.128-.499.071-.65-.134-.152-.203-.128-.487.057-.662l1.838-1.741-1.244.718c-.188.106-.421.084-.582-.059s-.212-.373-.128-.57l.636-1.486c-.211.057-.442-.036-.556-.234-.139-.239-.057-.545.183-.683l1.161-.67c.186-.107.42-.085.582.059.161.143.212.373.128.57l-.623 1.457 3.613-2.086c.217-.128.5-.07.65.134.152.203.128.487-.057.662l-1.838 1.741 2.27-1.31c.224-.134.517-.065.663.151.147.216.104.51-.102.673l-.447.355c.171-.049.36-.002.491.13.159.161.19.41.075.605l-1.089 1.846.408-.235c.238-.139.545-.058.683.183.139.239.057.545-.183.683l-2.056 1.187c-.078.046-.164.067-.25.067z"/><path d="m17.874 24.47c-.145 0-.287-.062-.385-.181-.155-.188-.153-.46.006-.646l1.05-1.222-2.961 1.709c-.208.122-.478.076-.633-.111-.156-.186-.156-.457 0-.643l1.255-1.495-.926.534c-.199.116-.45.08-.609-.085s-.187-.417-.065-.611l.336-.54c-.119-.035-.225-.114-.291-.229-.139-.239-.057-.545.183-.683l1.161-.67c.197-.117.449-.08.609.085.159.165.187.417.065.611l-.161.259 1.655-.955c.209-.122.477-.076.633.111.156.186.156.457 0 .643l-1.255 1.495 3.047-1.759c.21-.123.479-.075.635.113.155.188.153.46-.006.646l-1.05 1.223.553-.319c.239-.141.546-.057.683.183.139.239.057.545-.183.683l-3.096 1.787c-.078.046-.164.067-.25.067z"/><path d="m17.472 34.47c-.147 0-.292-.065-.39-.187-.154-.192-.146-.469.021-.65l1.317-1.442-3.001 1.732c-.216.126-.495.071-.648-.131-.152-.2-.131-.483.049-.659l2.557-2.501-2.096 1.21c-.214.126-.491.072-.645-.126-.153-.197-.138-.478.037-.656l.762-.78-.154.089c-.199.117-.451.08-.611-.087-.159-.166-.185-.42-.061-.614l.314-.493c-.111-.037-.21-.114-.272-.224-.139-.239-.057-.545.183-.683l1.161-.67c.199-.116.453-.08.611.087.159.166.185.42.061.614l-.116.182 1.53-.883c.214-.126.491-.072.645.126.153.197.138.478-.037.656l-.762.78 2.387-1.378c.215-.128.494-.071.648.131.152.2.131.483-.049.659l-2.557 2.5 2.364-1.364c.212-.125.485-.072.64.119.154.192.146.469-.021.65l-1.318 1.443.699-.403c.197-.115.446-.081.606.082s.189.413.072.608l-.364.605c.129.031.244.113.315.236.139.239.057.545-.183.683l-1.16.67c-.197.116-.445.081-.606-.082-.16-.163-.189-.413-.072-.608l.218-.362-1.824 1.053c-.078.046-.164.067-.25.067z"/><path d="m18.066 44.47c-.148 0-.295-.066-.393-.19-.153-.194-.142-.473.029-.653l.547-.577-2.271 1.311c-.216.126-.495.069-.648-.13-.152-.2-.132-.483.048-.659l2.412-2.37-2.51 1.449c-.222.131-.508.066-.657-.143-.149-.21-.115-.5.08-.668l.858-.742-.281.162c-.187.108-.423.084-.583-.06-.161-.144-.212-.374-.126-.572l.625-1.439c-.204.051-.434-.042-.546-.237-.139-.239-.057-.545.183-.683l1.161-.67c.187-.107.422-.085.583.06.161.144.212.374.126.572l-.611 1.406 3.532-2.038c.222-.131.508-.066.657.143.149.21.115.5-.08.668l-.856.74 1.353-.78c.215-.127.495-.07.648.13.152.2.132.483-.048.659l-2.412 2.369 1.834-1.059c.213-.125.488-.072.643.123.153.194.142.473-.029.653l-.558.589c.229-.096.5-.01.627.211.139.239.057.545-.183.683l-2.903 1.676c-.078.046-.164.067-.25.067z"/><path d="m17.58 54.47c-.152 0-.302-.069-.399-.199-.152-.202-.13-.485.053-.661l.444-.428-1.897 1.095c-.218.129-.501.071-.653-.137-.15-.205-.123-.491.065-.664l2.077-1.908-1.989 1.148c-.213.125-.487.072-.643-.122-.153-.195-.142-.473.029-.653l1.669-1.771-1.056.609c-.192.11-.436.082-.597-.072-.16-.153-.199-.396-.097-.593l.479-.914c-.167-.006-.327-.095-.416-.25-.139-.239-.057-.545.183-.683l1.161-.67c.193-.113.436-.082.597.072.16.153.199.396.097.593l-.414.789 2.519-1.454c.214-.125.487-.072.643.122.153.195.142.473-.029.653l-1.669 1.771 2.968-1.714c.219-.128.502-.07.653.137.15.205.123.491-.065.664l-2.078 1.909 1.506-.869c.217-.128.496-.072.649.132.152.202.13.485-.053.661l-.487.47c.174-.053.368-.005.5.132.159.164.187.416.065.611l-.337.544c.119.034.226.113.292.229.139.239.057.545-.183.683l-1.16.67c-.199.115-.45.081-.609-.085-.159-.164-.187-.416-.065-.611l.164-.266-1.666.962c-.078.046-.164.067-.25.067z"/></g></g><g id="Lines" fill="#262626"><path d="m34.411 18.012c-10.427 5.191-6.314 21.708 5.319 21.442 19.672-1.031 12.478-29.794-5.319-21.442zm15.757 11.581c-1.113 10.466-16.28 11.987-19.713 2.152-5.547-16.73 21.313-19.534 19.713-2.152z"/><path d="m5.056 59.437c16.639-.032 33.243.205 49.882.103 3.362-.051 3.781-5.013.198-5.068.699-.71.814-2.071.173-2.912 5.945.815 5.664-6.289-.25-5.132 3.016-5.892-7.445-3.333-10.525-3.835 13.813-3.595 14.916-24.41 1.191-28.984 1.03-14.564-1.516-13.452-14.685-13.045-9.419.908-20.639-1.952-29.339 1.353-3.406 6.985-.521 18.048-1.429 26.043 1.225 6.31-3.96 32.707 4.784 31.477zm50.005-.976c-4.042-.776-27.586 1.823-27.327-1.512.881-3.117 20.867-.628 25.206-1.401 2.047-.79 5.143 1.994 2.122 2.913zm-1.98-4.013c-4.071-.767-27.52 1.818-27.347-1.496-.175-2.976 13.993-.601 16.968-1.393 3.344.001 6.687.001 10.031.001 1.556.152 2.307 2.709.348 2.888zm3.587-6.888c1.701-.154 2.295 2.726.388 2.882-2.303.001-4.607-.002-6.91 0-3.694-.766-19.88 1.793-20.411-1.487-.554-3.079 23.199-.686 26.933-1.395zm-5.994-4.152c.796.014 1.565-.104 2.355.082 1.631.527 1.744 3.496-.366 2.951-7.773.109-15.595-.234-23.338.151-1.344 0-3.463.341-3.588-1.624-.979-3.359 21.488-.813 24.937-1.561zm3.601-15.213c-3.278 28.975-43.092 8.399-23.259-11.665.361-.032.603-.264.658-.51 2.505-1.816 5.561-2.775 8.698-2.641.206.249.675.251 1.009.081.993.111 2.01.34 2.958.684 5.854 2.057 9.882 7.752 9.936 14.051zm-23.214-12.736h-3.956c2.083-2.975 4.165-5.95 6.248-8.925 6.139-.268 7.494-.65 6.912 6.139-3.232.021-6.445 1.004-9.133 2.797-.026-.002-.043-.011-.071-.011zm-25.326-7.458c.951-2.959 5.752-.864 8.193-1.46-2.086 2.98-4.171 5.959-6.257 8.939-3.403-.123-1.522-5.238-1.935-7.479zm9.074-.738c.168-.241.337-.481.505-.722h3.675c-2.081 2.972-4.161 5.944-6.241 8.916h-3.675c1.912-2.731 3.824-5.463 5.736-8.194zm5.04-.144c.135-.193.27-.385.405-.578h3.752c-2.081 2.972-4.161 5.944-6.241 8.916h-3.752c1.946-2.779 3.891-5.559 5.837-8.338zm4.996-.016c.131-.187.262-.375.393-.562h6.658c-2.081 2.972-4.161 5.944-6.242 8.916h-6.658c1.949-2.785 3.899-5.57 5.848-8.355zm-23.118-1.748c-1.024-7.169 18.736-2.796 23.739-3.919 12.481 1.365 20.627-5.648 18.808 11.726-.836-.212-1.684-.356-2.539-.428-.317-2.394 1.118-6.309-1.995-7.204-11.102-.137-22.391-.21-33.506.064-3.205 1.256-1.611 5.485-1.969 8.143-.579 5.577 20.851 1.744 25.428 2.805-9.127 7.196-5.921 23.05 5.279 26.051-3.311.567-8.409-1.556-10.534 1.723-.944 2.822 2.395 3.333 4.44 3.163-.732.782-.81 2.18-.158 2.954-3.988-1.01-6.647 4.295-1.887 5.112-.737.832-.742 2.269-.021 3.019-6.081 0-12.163 0-18.244 0-3.398.609-7.382-.564-6.841-4.708.022-16.166-.048-32.334 0-48.5z"/><path d="m5.119 24.363c3.209.353 7.69 1.018 6.592-3.719-.791-2.098-3.871-.829-5.612-1.155-2.259-.065-2.536 3.922-.98 4.875zm1.003-.875c.006.001.003 0 .007 0-.036.006-.105-.016-.007 0zm4.015 0s-.007 0-.01 0c.007-.004.01-.005.01 0zm-4.25-2.981s-.004 0-.006 0c.036-.013.077-.009.006 0zm-.155 1.434c.053-.468-.138-1.023.143-1.43 3.121.308 5.183-1.357 4.242 2.978-1.321.003-2.643 0-3.963.001-.602-.174-.423-1.084-.422-1.549z"/><path d="m4.84 34.185c1.948.273 6.06 1.231 6.885-1.179-.325-1.683.95-4.714-1.129-5.426-3.962-.158-7.214-.83-6.324 4.423 0 .764-.152 1.68.568 2.181zm.888-4.08c.054-.542-.142-1.169.151-1.648 5.417-.319 4.559.12 4.253 5.084-3.465-.038-4.928.876-4.405-3.436z"/><path d="m14.527 34.148c1.948.273 6.06 1.231 6.885-1.179-.325-1.683.95-4.714-1.129-5.426-3.962-.158-7.214-.83-6.324 4.423 0 .764-.152 1.68.568 2.181zm.888-4.08c.054-.542-.142-1.169.151-1.648 5.417-.319 4.559.12 4.253 5.084-3.465-.038-4.928.876-4.405-3.436z"/><path d="m4.84 44.09c1.948.273 6.06 1.231 6.885-1.179-.325-1.683.95-4.714-1.129-5.426-3.962-.158-7.214-.83-6.324 4.423 0 .764-.152 1.68.568 2.181zm.888-4.08c.054-.542-.142-1.169.151-1.648 5.417-.319 4.559.12 4.253 5.084-3.465-.038-4.928.876-4.405-3.436z"/><path d="m14.527 44.053c1.948.273 6.06 1.231 6.885-1.179-.325-1.683.95-4.714-1.129-5.426-3.962-.158-7.214-.83-6.324 4.423 0 .764-.152 1.68.568 2.181zm.888-4.08c.054-.542-.142-1.169.151-1.648 5.417-.319 4.559.12 4.253 5.084-3.465-.038-4.928.876-4.405-3.436z"/><path d="m4.84 53.995c1.948.273 6.06 1.231 6.885-1.179-.325-1.683.95-4.714-1.129-5.426-3.962-.158-7.214-.83-6.324 4.423 0 .764-.152 1.68.568 2.181zm.888-4.08c.054-.542-.142-1.169.151-1.648 5.417-.319 4.559.12 4.253 5.084-3.465-.038-4.928.876-4.405-3.436z"/><path d="m14.527 53.959c1.948.273 6.06 1.231 6.885-1.179-.325-1.683.95-4.714-1.129-5.426-3.962-.158-7.214-.83-6.324 4.423 0 .764-.152 1.68.568 2.181zm.888-4.08c.054-.542-.142-1.169.151-1.648 5.417-.319 4.559.12 4.253 5.084-3.465-.038-4.928.876-4.405-3.436z"/><path d="m15.851 24.406c1.866-.264 5.846.996 5.873-1.89.005-1.062.313-2.67-1.118-2.892-1.907.145-4.24-.584-5.894.554-.798 1.187-.937 4.367 1.138 4.229zm-.127-2.48c.002-.372-.003-.745 0-1.117 0-.051.063-.296.175-.402 3.017.107 5.26-.991 4.223 3.188-1.575-.276-4.945 1.008-4.398-1.668z"/><path d="m43.276 25.282c3.61.378-.797-3.122-2.544-2.599.513-3.113-1.964-2.823-1.464.086-5.009.506-5.422 5.353 0 5.523v4.269c-1.077-.227-2.093-.798-2.544-1.843-3.61-.378.797 3.122 2.544 2.599-.513 3.113 1.964 2.823 1.464-.086 5.009-.506 5.422-5.353 0-5.523v-4.269c1.077.227 2.093.798 2.544 1.843zm-6.539-.142c.162-1.203 1.428-1.707 2.531-1.801v4.135c-1.239-.261-2.738-.799-2.531-2.334zm6.526 5.721c-.162 1.203-1.428 1.707-2.531 1.801v-4.135c1.239.261 2.738.799 2.531 2.334z"/></g></svg>