<svg class="h-5 w-5" id="Layer_1" viewBox="0 0 512 512" xmlns="http://www.w3.org/2000/svg" data-name="Layer 1"><path d="m25.106 17.952v453.715h363.987v-453.715z" fill="#d5e3f2" fill-rule="evenodd"/><path d="m144.822 70.058a7.2 7.2 0 0 1 0-14.4h112.489a7.2 7.2 0 1 1 0 14.4zm-76.994 227.455a7.2 7.2 0 0 1 0-14.4h200.266a7.2 7.2 0 0 1 0 14.4zm0 45.462a7.184 7.184 0 1 1 0-14.367h118.843a7.184 7.184 0 1 1 0 14.367zm0 45.491a7.2 7.2 0 1 1 0-14.4h89.759a7.2 7.2 0 0 1 0 14.4zm0 45.491a7.2 7.2 0 1 1 0-14.4h83.522a7.2 7.2 0 0 1 0 14.4zm0-181.935a7.2 7.2 0 0 1 0-14.4h278.542a7.2 7.2 0 0 1 0 14.4zm76.994-45.491a7.2 7.2 0 0 1 0-14.4h143.934a7.2 7.2 0 1 1 0 14.4zm0-45.491a7.2 7.2 0 0 1 0-14.4h113.978a7.2 7.2 0 0 1 0 14.4zm0-45.491a7.2 7.2 0 0 1 0-14.4h105.087a7.2 7.2 0 1 1 0 14.4z" fill="#4d6c8f"/><path d="m99.8 187.006v12.327a7.2 7.2 0 0 1 -14.4 0v-12.327a31.369 31.369 0 0 1 -11.19-5.013 32.091 32.091 0 0 1 -11.71-15.387 7.194 7.194 0 0 1 13.55-4.838 17.571 17.571 0 1 0 16.55-23.459 31.97 31.97 0 0 1 -7.2-63.122v-12.327a7.2 7.2 0 0 1 14.4 0v12.327a32.015 32.015 0 0 1 22.9 20.429 7.185 7.185 0 1 1 -13.551 4.779 17.569 17.569 0 1 0 -16.549 23.518 31.959 31.959 0 0 1 7.2 63.093z" fill="#4d6c8f"/><path d="m380.554 212.738a106.355 106.355 0 1 0 -106.369-106.369 106.544 106.544 0 0 0 106.369 106.369z" fill="#fb4455" fill-rule="evenodd"/><path d="m335.558 61.4a16.053 16.053 0 1 1 0 22.7 16.058 16.058 0 0 1 0-22.7zm67.261 67.26a16.052 16.052 0 1 1 0 22.7 16.057 16.057 0 0 1 0-22.7z" fill="#d5e3f2" fill-rule="evenodd"/><path d="m333.4 163.692a7.192 7.192 0 0 1 -10.171-10.171l104.448-104.475a7.2 7.2 0 1 1 10.171 10.2z" fill="#d5e3f2"/><g fill-rule="evenodd"><path d="m292.369 296.7c0-14.95 40.217-27.073 89.817-27.073 49.629 0 89.845 12.123 89.845 27.073v169.488c0 14.95-40.216 27.074-89.845 27.074-49.6 0-89.817-12.124-89.817-27.074z" fill="#ffd23b"/><path d="m382.215 323.77c49.454 0 89.816-12.152 89.816-27.073s-40.362-27.073-89.816-27.073c-49.483 0-89.846 12.152-89.846 27.073s40.363 27.073 89.846 27.073z" fill="#f59329"/><path d="m472.031 296.7v55.2c0 14.95-40.216 27.073-89.845 27.073-49.6 0-89.817-12.123-89.817-27.073v-55.2c0 14.95 40.217 27.073 89.817 27.073 49.629 0 89.845-12.123 89.845-27.073z" fill="#ffd23b"/><path d="m292.369 353.845h.234c3.322 14.047 42.168 25.121 89.583 25.121 47.443 0 86.29-11.074 89.612-25.121h.233v55.2c0 14.95-40.216 27.073-89.845 27.073-49.6 0-89.817-12.123-89.817-27.073z" fill="#f59329"/><path d="m292.369 321.818a100.816 100.816 0 0 1 47.531 168.267c-28.268-4.575-47.531-13.551-47.531-23.9z" fill="#e8bd31"/><path d="m359.717 378.121a100.113 100.113 0 0 1 8.918 41.5 101.248 101.248 0 0 1 -1.283 16.116c-42.547-2.128-74.983-13.26-74.983-26.694v-55.2h.234c2.8 11.744 30.395 21.42 67.114 24.276z" fill="#e68720"/><path d="m292.369 321.818a100.968 100.968 0 0 1 67.348 56.3c-38.73-3-67.348-13.61-67.348-26.228z" fill="#e8bd31"/><path d="m267.8 512a92.381 92.381 0 1 0 -92.381-92.381 92.559 92.559 0 0 0 92.381 92.381z" fill="#ffd23b"/></g><path d="m275 468.287v9.733a7.2 7.2 0 0 1 -14.4 0v-9.733a28.593 28.593 0 0 1 -19.554-17.923 7.194 7.194 0 0 1 13.551-4.837 14.027 14.027 0 0 0 5.158 6.761 14.024 14.024 0 0 0 22.061-11.482 13.98 13.98 0 0 0 -14.016-13.989 28.417 28.417 0 0 1 -20.08-48.492 28.716 28.716 0 0 1 12.881-7.4v-9.733a7.2 7.2 0 0 1 14.4 0v9.733a28.42 28.42 0 0 1 19.554 17.952 7.194 7.194 0 0 1 -13.555 4.835 14.024 14.024 0 0 0 -13.2-9.326 14.018 14.018 0 0 0 0 28.035 28.4 28.4 0 0 1 7.2 55.866z" fill="#f59329"/><path d="m34.344 471.667v-453.715h-9.238v453.715z" fill="#b7cfe8" fill-rule="evenodd"/><path d="m291.612 106.369a106.27 106.27 0 0 1 97.656-105.99c-2.886-.233-5.8-.379-8.714-.379a106.369 106.369 0 0 0 0 212.738c2.856 0 5.712-.116 8.539-.349a106.4 106.4 0 0 1 -97.481-106.02z" fill="#e82e41" fill-rule="evenodd"/><path d="m190.838 419.619a92.431 92.431 0 0 1 84.687-92.089c-2.535-.2-5.129-.292-7.722-.292a92.381 92.381 0 1 0 -.003 184.762c2.593 0 5.187-.116 7.722-.321a92.379 92.379 0 0 1 -84.687-92.06z" fill="#e8bd31" fill-rule="evenodd"/><path d="m300.966 333.358v-25.092c-5.507-3.5-8.6-7.431-8.6-11.569v33.834c2.944.816 5.8 1.749 8.6 2.827z" fill="#e8bd31" fill-rule="evenodd"/></svg>