<svg class="h-5 w-5" id="filled_outline" height="512" viewBox="0 0 64 64" width="512" xmlns="http://www.w3.org/2000/svg" data-name="filled outline"><path d="m10 1a9 9 0 0 0 -9 9h18a9 9 0 0 0 -9-9z" fill="#bec3d2"/><path d="m11.5 1.135a8.951 8.951 0 0 0 -10.5 8.865h3a8.995 8.995 0 0 1 7.5-8.865z" fill="#afb4c8"/><path d="m48 1h-38a9 9 0 0 1 9 9v44a9 9 0 0 0 18 0h20v-44a9 9 0 0 0 -9-9z" fill="#e9edf5"/><path d="m22 54v-44a9 9 0 0 0 -9-9h-3a9 9 0 0 1 9 9v44a8.951 8.951 0 0 0 10.5 8.865 8.995 8.995 0 0 1 -7.5-8.865z" fill="#dce1eb"/><path d="m37 54a9 9 0 0 1 -9 9h26a9 9 0 0 0 9-9z" fill="#afb4c8"/><path d="m54 63a9 9 0 0 0 8.769-7h-22.769a8.769 8.769 0 0 1 -3.952 7z" fill="#bec3d2"/><circle cx="19" cy="42.677" fill="#ffd36c" r="12"/><path d="m22 53a12 12 0 0 1 -7.285-21.535 12 12 0 1 0 11.585 20.735 12.047 12.047 0 0 1 -4.3.8z" fill="#fdb924"/><path d="m63 53h-5v-43a10.011 10.011 0 0 0 -10-10h-38a10.011 10.011 0 0 0 -10 10 1 1 0 0 0 1 1h17v16.048a1 1 0 1 0 2 0v-17.048a9.98 9.98 0 0 0 -4.026-8h32.026a8.009 8.009 0 0 1 8 8v43h-19a1 1 0 0 0 -1 1 8 8 0 0 1 -15.108 3.675 1 1 0 0 0 -1.776.92 9.973 9.973 0 0 0 8.884 5.405h26a10.011 10.011 0 0 0 10-10 1 1 0 0 0 -1-1zm-45.063-44h-15.875a8 8 0 0 1 15.875 0zm36.063 53h-20.01a10 10 0 0 0 3.96-7h23.987a8.011 8.011 0 0 1 -7.937 7z"/><path d="m28 26.412h20a1 1 0 0 0 0-2h-20a1 1 0 0 0 0 2z"/><path d="m48 31.079h-17a1 1 0 0 0 0 2h17a1 1 0 0 0 0-2z"/><path d="m48 37.745h-13a1 1 0 0 0 0 2h13a1 1 0 0 0 0-2z"/><path d="m48 44.412h-13a1 1 0 0 0 0 2h13a1 1 0 0 0 0-2z"/><path d="m28 13.079h20a1 1 0 0 0 0-2h-20a1 1 0 0 0 0 2z"/><path d="m28 19.745h20a1 1 0 0 0 0-2h-20a1 1 0 0 0 0 2z"/><path d="m32 42.677a13 13 0 1 0 -13 13 13.014 13.014 0 0 0 13-13zm-13 11a11 11 0 1 1 11-11 11.013 11.013 0 0 1 -11 11z"/><path d="m17.654 38.643h2.692a1.592 1.592 0 0 1 1.654 1.517 1 1 0 0 0 2 0 3.592 3.592 0 0 0 -3.654-3.517h-.346v-1.966a1 1 0 0 0 -2 0v1.966h-.346a3.52 3.52 0 1 0 0 7.034h2.692a1.523 1.523 0 1 1 0 3.034h-2.692a1.592 1.592 0 0 1 -1.654-1.517 1 1 0 0 0 -2 0 3.592 3.592 0 0 0 3.654 3.517h.346v1.966a1 1 0 0 0 2 0v-1.966h.346a3.52 3.52 0 1 0 0-7.034h-2.692a1.523 1.523 0 1 1 0-3.034z"/></svg>