<svg class="h-5 w-5" height="512" viewBox="0 0 64 64" width="512" xmlns="http://www.w3.org/2000/svg"><g id="Family-Relatives-Mother-Father-Boy"><path d="m59.44 32.25a3 3 0 0 1 -1.88 4.7c-.02 0-.03.01-.05.01h-23.02c-.02 0-.03-.01-.05-.01a3 3 0 0 1 -1.88-4.7 2.027 2.027 0 0 0 .06-2.42 3.017 3.017 0 0 1 .2-3.9 4.175 4.175 0 0 0 1.2-3.14c-.01-.26-.02-.53-.02-.79v-6.65a12.331 12.331 0 0 1 12.02-12.35 11.984 11.984 0 0 1 11.98 12v7c0 .26-.01.53-.02.79a4.175 4.175 0 0 0 1.2 3.14 3.017 3.017 0 0 1 .2 3.9 2.027 2.027 0 0 0 .06 2.42z" fill="#57565c"/><path d="m49 27.42v4.58a3 3 0 0 1 -6 0v-4.58a8.049 8.049 0 0 0 6 0z" fill="#ffc477"/><path d="m49 27.42v3a8.049 8.049 0 0 1 -6 0v-3a8.049 8.049 0 0 0 6 0z" fill="#ffb655"/><path d="m54 14v7a8.014 8.014 0 0 1 -2.34 5.66 8.026 8.026 0 0 1 -8.66 1.76 8.008 8.008 0 0 1 -5-7.42v-7c6 0 8 0 12-3z" fill="#ffc477"/><path d="m37 55.5v5.5h-6v-12h4.08a8.134 8.134 0 0 0 .91 2.62 7.99 7.99 0 0 1 1.01 3.88z" fill="#ffc477"/><path d="m46 35v.01a3.433 3.433 0 0 1 -5.96 2.33 7.989 7.989 0 0 1 -1.7-3.02l4.66-2.32a3 3 0 0 0 3 3z" fill="#e6e7e8"/><path d="m55 55h.02a7.919 7.919 0 0 1 .99-3.38 8.134 8.134 0 0 0 .91-2.62h4.08v8a4 4 0 0 1 -4 4h-11v-6z" fill="#ffc477"/><path d="m56.92 49a8.134 8.134 0 0 1 -.91 2.62 7.919 7.919 0 0 0 -.99 3.38h-11.02a3 3 0 0 0 0 6h-7v-5.5a7.99 7.99 0 0 0 -1.01-3.88 8.134 8.134 0 0 1 -.91-2.62h-4.08v-3.58a11.994 11.994 0 0 1 3.49-8.46h.01a11.662 11.662 0 0 1 3.13-2.28l.71-.36a7.989 7.989 0 0 0 1.7 3.02 3.433 3.433 0 0 0 5.96-2.33 3.433 3.433 0 0 0 5.96 2.33 7.989 7.989 0 0 0 1.7-3.02l.71.36a11.662 11.662 0 0 1 3.13 2.28h.01a11.994 11.994 0 0 1 3.49 8.46v3.58z" fill="#ed539d"/><path d="m49 32 4.66 2.32a7.989 7.989 0 0 1 -1.7 3.02 3.433 3.433 0 0 1 -5.96-2.33v-.01a3 3 0 0 0 3-3z" fill="#e6e7e8"/><path d="m33 45.42v15.58h-26a4 4 0 0 1 -4-4v-11.58a12.02 12.02 0 0 1 6.63-10.74l2.51-1.25h11.72l2.51 1.25a12.02 12.02 0 0 1 6.63 10.74z" fill="#ff5023"/><path d="m9 55h9v6h-11a4 4 0 0 1 -4-4v-9h6z" fill="#ffc477"/><path d="m21 27.48v3.52l-3 5-3-5v-3.52a8.914 8.914 0 0 0 6 0z" fill="#ffc477"/><path d="m21 27.48v3a8.914 8.914 0 0 1 -6 0v-3a8.914 8.914 0 0 0 6 0z" fill="#ffb655"/><path d="m27 13v7a8.981 8.981 0 0 1 -6 8.48 8.914 8.914 0 0 1 -6 0 8.981 8.981 0 0 1 -6-8.48v-7a2.006 2.006 0 0 1 2-2h14a2.006 2.006 0 0 1 2 2z" fill="#ffc477"/><path d="m24 33-.14.43-1.86 5.57-4-3 3-5z" fill="#ed1c24"/><path d="m15 31 3 5-4 3-1.86-5.57-.14-.43z" fill="#ed1c24"/><path d="m14 21h8a3.74 3.74 0 0 1 -4 4 3.74 3.74 0 0 1 -4-4z" fill="#ff9811"/><path d="m27 6v7a2.006 2.006 0 0 0 -2-2h-6c2.21 0 4-.79 4-3v-2z" fill="#787680"/><path d="m11 11a2.006 2.006 0 0 0 -2 2v-6a4 4 0 0 1 4-4h10v5c0 2.21-1.79 3-4 3z" fill="#57565c"/><path d="m9 14v5h-1.5a2.5 2.5 0 0 1 0-5z" fill="#ffb655"/><path d="m28.5 14a2.5 2.5 0 1 1 0 5h-1.5v-5z" fill="#ffb655"/><path d="m38 61h-16v-5.29a6 6 0 0 1 3.32-5.37l4.68-2.34a2 2 0 0 0 4 0l4.68 2.34a6 6 0 0 1 3.32 5.37v5.29z" fill="#1e81ce"/><path d="m39 36a2.006 2.006 0 0 1 2 2 2.015 2.015 0 0 1 -2 2h-1v-4z" fill="#ffb655"/><path d="m26 37v3h-1a2.015 2.015 0 0 1 -2-2 2.006 2.006 0 0 1 2-2h1z" fill="#ffb655"/><path d="m34 44.65v3.35a2 2 0 0 1 -4 0v-3.35a5.889 5.889 0 0 0 4 0z" fill="#ffc477"/><path d="m34 44.65v2a5.889 5.889 0 0 1 -4 0v-2a5.889 5.889 0 0 0 4 0z" fill="#ffb655"/><path d="m38 37v3a5.981 5.981 0 0 1 -4 5.65 5.889 5.889 0 0 1 -4 0 5.981 5.981 0 0 1 -4-5.65v-3l3-2h6z" fill="#ffc477"/><path d="m38 36v1l-3-2h-6l-3 2v-3a4 4 0 0 1 4-4h4a4 4 0 0 1 4 4z" fill="#57565c"/><path d="m46 55v6h-2a3 3 0 0 1 0-6z" fill="#ffc477"/><path d="m22.12 60.12a2.993 2.993 0 0 1 -2.12.88h-2v-6h2a3 3 0 0 1 2.12 5.12z" fill="#ffc477"/><path d="m59.18 37.34a3.946 3.946 0 0 0 1.75-2.6 4.012 4.012 0 0 0 -.68-3.08 1.053 1.053 0 0 1 -.08-1.22 4.007 4.007 0 0 0 -.27-5.2 3.222 3.222 0 0 1 -.92-2.41c.01-.28.02-.56.02-.83v-7a12.974 12.974 0 0 0 -12.98-13h-.02a12.676 12.676 0 0 0 -9 3.81 13.582 13.582 0 0 0 -4 9.54v6.65c0 .27.01.55.02.86a3.2 3.2 0 0 1 -.92 2.38 3.928 3.928 0 0 0 -1.1 2.76 4.231 4.231 0 0 0 .14 1h-1.14a5.006 5.006 0 0 0 -4.88 3.94l-.14-.07a.976.976 0 0 0 -.43-.7l-2.55-1.71v-1.3a10.013 10.013 0 0 0 6-9.16h.5a3.5 3.5 0 0 0 0-7h-.5v-7a1 1 0 0 0 -1-1h-3v-2a1 1 0 0 0 -1-1h-10a5 5 0 0 0 -5 5v6h-.5a3.5 3.5 0 0 0 0 7h.5a10.013 10.013 0 0 0 6 9.16v1.3l-2.55 1.71a.976.976 0 0 0 -.43.7l-1.84.92a12.942 12.942 0 0 0 -7.18 11.63v11.58a5 5 0 0 0 5 5h50a5 5 0 0 0 5-5v-11.58a12.932 12.932 0 0 0 -2.82-8.08zm-31.18-22.34h.5a1.5 1.5 0 0 1 0 3h-.5zm-20 3h-.5a1.5 1.5 0 0 1 0-3h.5zm25.54 8.62a5.152 5.152 0 0 0 1.48-3.87c-.01-.25-.02-.5-.02-.75v-6.65a11.592 11.592 0 0 1 3.41-8.13 10.711 10.711 0 0 1 7.59-3.22h.02a10.994 10.994 0 0 1 10.98 11v7c0 .25-.01.5-.02.72a5.175 5.175 0 0 0 1.48 3.9 1.977 1.977 0 0 1 .54 1.38 2.014 2.014 0 0 1 -.41 1.22 2.986 2.986 0 0 0 .04 3.61 1.994 1.994 0 0 1 .33 1.56 1.967 1.967 0 0 1 -1.2 1.44 12.772 12.772 0 0 0 -2.94-2.04l-4.82-2.41v-2.33a9.008 9.008 0 0 0 5-8.05v-7a1.014 1.014 0 0 0 -.4-.8l-4-3a.99.99 0 0 0 -1.2 0c-3.73 2.8-5.51 2.8-11.4 2.8a1 1 0 0 0 -1 1v7a9.008 9.008 0 0 0 5 8.05v2.33l-3.12 1.55a5.007 5.007 0 0 0 -4.88-3.93h-.71a2.041 2.041 0 0 1 -.29-1 1.977 1.977 0 0 1 .54-1.38zm6.19 8.48a2.437 2.437 0 0 1 -.14-.28l2.7-1.35a3.976 3.976 0 0 0 2.56 2.34 2.354 2.354 0 0 1 -1.02 1.29 2.462 2.462 0 0 1 -1.9.27 3.011 3.011 0 0 0 -2.2-2.27zm.27 2.9a1 1 0 0 1 -1 1v-2a1 1 0 0 1 1 1zm-1-17v-6c5.05-.01 7.34-.17 10.99-2.76l3.01 2.26v6.5a7 7 0 0 1 -14 0zm5 11v-2.23a8.811 8.811 0 0 0 4 0v2.23a2 2 0 0 1 -4 0zm5.71 1.47 2.7 1.35a7.22 7.22 0 0 1 -1.19 1.85 2.344 2.344 0 0 1 -2.64.62 2.448 2.448 0 0 1 -1.45-1.47 4 4 0 0 0 2.58-2.35zm-22.71.53a3.009 3.009 0 0 1 3-3h4a3.009 3.009 0 0 1 3 3v1.13l-1.45-.96a.967.967 0 0 0 -.55-.17h-6a.967.967 0 0 0 -.55.17l-1.45.96zm0 3.54 2.3-1.54h5.4l2.3 1.54v2.46a5 5 0 0 1 -10 0zm6 9.38v1.08a1 1 0 0 1 -2 0v-1.08a6.29 6.29 0 0 0 2 0zm-8.56-12.08.36.18a3.293 3.293 0 0 0 -.44.05zm.56 2.16v2a1 1 0 0 1 0-2zm-2.19-3.59-1.32 3.96-2.17-1.63 2-3.33zm-4.81.65-2-3.34v-.92a10.1 10.1 0 0 0 4 0v.92zm6-26.06v-1h2v3.18a3 3 0 0 0 -1-.18h-1.53a3.918 3.918 0 0 0 .53-2zm-14-1a3.009 3.009 0 0 1 3-3h9v4c0 .49 0 2-3 2h-8a3 3 0 0 0 -1 .18zm0 13v-7a1 1 0 0 1 1-1h14a1 1 0 0 1 1 1v7a8 8 0 0 1 -16 0zm4.68 12.41 2 3.33-2.17 1.63-1.32-3.96zm2.32 27.59h-10a3.009 3.009 0 0 1 -3-3v-8h4v5.59l-1.71 1.7 1.42 1.42 1.7-1.71h7.59zm3 0h-1v-4h1a2 2 0 0 1 0 4zm1.19-5.8a3.907 3.907 0 0 0 -1.19-.2h-10v-11h-2v4h-4v-1.58a10.951 10.951 0 0 1 6.08-9.84l1.48-.74 1.49 4.48a.975.975 0 0 0 .65.63 1.047 1.047 0 0 0 .3.05 1.029 1.029 0 0 0 .6-.2l3.4-2.55 3.4 2.55a1.029 1.029 0 0 0 .6.2 1.047 1.047 0 0 0 .3-.05 1 1 0 0 0 .3-.17 2.986 2.986 0 0 0 2.4 1.22h.08a7 7 0 0 0 3.92 5.31v1.07l-4.13 2.07a6.906 6.906 0 0 0 -3.68 4.75zm19.37 5.8h-1.56v-6h-2v6h-10v-6h-2v6h-1.56a3.906 3.906 0 0 0 .56-2 3.974 3.974 0 0 0 -.98-2.59 4.973 4.973 0 0 1 2.75-4.18l3.61-1.8a2.971 2.971 0 0 0 5.24 0l3.61 1.8a5.028 5.028 0 0 1 2.75 4.18 3.974 3.974 0 0 0 -.98 2.59 3.906 3.906 0 0 0 .56 2zm4.44 0h-1a2 2 0 0 1 0-4h1zm15-3a3.009 3.009 0 0 1 -3 3h-10v-4h7.59l1.7 1.71 1.42-1.42-1.64-1.64a6.985 6.985 0 0 1 .81-2.55 9.34 9.34 0 0 0 .85-2.1h2.27zm0-9h-2a8.723 8.723 0 0 0 -2.29-5.71l-1.42 1.42a6.609 6.609 0 0 1 1.71 4.29 5.008 5.008 0 0 1 -.07.84 7.169 7.169 0 0 1 -.79 2.29 8.937 8.937 0 0 0 -1.01 2.87h-10.13a3.9 3.9 0 0 0 -1.18.2 6.955 6.955 0 0 0 -3.69-4.75l-4.13-2.07v-1.07a7 7 0 0 0 3.92-5.31h.08a3.006 3.006 0 0 0 2.66-1.63 4.212 4.212 0 0 0 .87.09 4.566 4.566 0 0 0 2.34-.65 4.345 4.345 0 0 0 1.13-1 4.538 4.538 0 0 0 3.49 1.66 4.347 4.347 0 0 0 3.22-1.46 9.36 9.36 0 0 0 1.48-2.29 10.954 10.954 0 0 1 2.6 1.94.6.6 0 0 0 .08.08 11.056 11.056 0 0 1 3.13 7.68z"/><path d="m44.017 22.25-1.325 1.5a5 5 0 0 0 6.616 0l-1.325-1.5a3.074 3.074 0 0 1 -3.966 0z"/><path d="m42 18a1 1 0 0 1 1 1h2a3 3 0 0 0 -6 0h2a1 1 0 0 1 1-1z"/><path d="m50 16a3 3 0 0 0 -3 3h2a1 1 0 0 1 2 0h2a3 3 0 0 0 -3-3z"/><path d="m23 21a1 1 0 0 0 -1-1h-8a1 1 0 0 0 -1 1 4.734 4.734 0 0 0 5 5 4.734 4.734 0 0 0 5-5zm-7.877 1h5.754a2.7 2.7 0 0 1 -2.877 2 2.7 2.7 0 0 1 -2.877-2z"/><path d="m14 16a1 1 0 0 1 1 1h2a3 3 0 0 0 -6 0h2a1 1 0 0 1 1-1z"/><path d="m22 16a1 1 0 0 1 1 1h2a3 3 0 0 0 -6 0h2a1 1 0 0 1 1-1z"/><path d="m29.5 42.33a5 5 0 0 0 5 0l-1-1.73a3.06 3.06 0 0 1 -3 0z"/><path d="m33 37h2v2h-2z"/><path d="m29 37h2v2h-2z"/></g></svg>