<svg class="h-5 w-5" id="Layer_1" enable-background="new 0 0 48 48" viewBox="0 0 48 48" xmlns="http://www.w3.org/2000/svg"><g><g><g><path d="m44.5 7.2-35.4-6.2c-1.6-.2-3.2.9-3.5 2.5l-3.6 20.9c-.3 1.6.8 3.2 2.5 3.5l35.4 6.2c1.6.3 3.2-.8 3.5-2.5l3.6-20.9c.2-1.6-.9-3.2-2.5-3.5z" fill="#346ba2"/></g><g><path d="m21.8-8.1h7v41.9h-7z" fill="#4c4f5e" transform="matrix(.171 -.985 .985 .171 8.259 35.595)"/></g><g><path d="m39.9 19.7h-35.9c-1.7 0-3 1.4-3 3v21.3c0 1.7 1.4 3 3 3h35.9c1.7 0 3-1.4 3-3v-21.3c0-1.6-1.3-3-3-3z" fill="#6ba6d6"/></g><g><path d="m12.4 25.3c.7-.9 1.8-1.4 3.1-1.4 2.2 0 4 1.8 4 4s-1.8 4-4 4c-1.2 0-2.3-.6-3.1-1.4" fill="#ff276a"/></g><g><circle cx="9.3" cy="27.8" fill="#fde600" r="4"/></g></g><g><g><g><path d="m43.3 33-.8-.5c.2-.3.3-.6.4-.9l3.6-20.9c.2-1.4-.7-2.7-2.1-2.9l-35.3-6.3c-.7-.1-1.4.1-1.9.5-.6.4-.9 1-1 1.6l-2.9 16.5-1-.2 2.8-16.5c.2-.9.7-1.7 1.4-2.3.8-.5 1.7-.8 2.6-.6l35.4 6.2c1.9.3 3.2 2.2 2.9 4.1l-3.6 20.9c-.1.5-.2.9-.5 1.3z"/></g><g><path d="m45.8 20.5-42.3-7.4 1.4-7.8 42.3 7.4zm-41.2-8.2 40.3 7 1-5.9-40.3-7z"/></g></g><g><path d="m39.9 47.5h-35.9c-1.9 0-3.5-1.6-3.5-3.5v-21.3c0-1.9 1.6-3.5 3.5-3.5h35.9c1.9 0 3.5 1.6 3.5 3.5v21.3c0 1.9-1.5 3.5-3.5 3.5zm-35.9-27.3c-1.4 0-2.5 1.1-2.5 2.5v21.3c0 1.4 1.1 2.5 2.5 2.5h35.9c1.4 0 2.5-1.1 2.5-2.5v-21.3c0-1.4-1.1-2.5-2.5-2.5z"/></g><g><path d="m9.3 32.4c-2.5 0-4.5-2-4.5-4.5s2-4.5 4.5-4.5 4.5 2 4.5 4.5-2 4.5-4.5 4.5zm0-8.1c-1.9 0-3.5 1.6-3.5 3.5s1.6 3.5 3.5 3.5 3.5-1.6 3.5-3.5-1.6-3.5-3.5-3.5z"/></g><g><path d="m15.4 32.4c-1.3 0-2.6-.6-3.4-1.6l.8-.6c.7.8 1.7 1.2 2.7 1.2 1.9 0 3.5-1.6 3.5-3.5s-1.6-3.5-3.5-3.5c-1 0-2 .5-2.7 1.2l-.8-.7c.9-1 2.1-1.6 3.4-1.6 2.5 0 4.5 2 4.5 4.5s-2 4.6-4.5 4.6z"/></g><g><g><path d="m6.5 38.4h5.5v1h-5.5z"/></g><g><path d="m15 38.4h5.5v1h-5.5z"/></g><g><path d="m23.5 38.4h5.5v1h-5.5z"/></g><g><path d="m31.9 38.4h5.5v1h-5.5z"/></g></g></g></g></svg>