<svg class="h-5 w-5" fill="#000000" width="64px" height="64px" viewBox="0 0 24 24" id="receipt-check" data-name="Flat Line" xmlns="http://www.w3.org/2000/svg" class="icon flat-line"><g id="SVGRepo_bgCarrier" stroke-width="0"></g><g id="SVGRepo_tracerCarrier" stroke-linecap="round" stroke-linejoin="round"></g><g id="SVGRepo_iconCarrier"><path id="secondary" d="M21,4V18.5a2.5,2.5,0,0,1-5,0V16H5V4A1,1,0,0,1,6,3H20A1,1,0,0,1,21,4Z" style="fill: #2ca9bc; stroke-width: 2;"></path><polyline id="primary" points="10 10 12 12 16 8" style="fill: none; stroke: #000000; stroke-linecap: round; stroke-linejoin: round; stroke-width: 2;"></polyline><path id="primary-2" data-name="primary" d="M21,4V18.5a2.5,2.5,0,0,1-5,0V16H5V4A1,1,0,0,1,6,3H20A1,1,0,0,1,21,4ZM16,18.5V16H3v2.5A2.5,2.5,0,0,0,5.5,21h13A2.5,2.5,0,0,1,16,18.5Z" style="fill: none; stroke: #000000; stroke-linecap: round; stroke-linejoin: round; stroke-width: 2;"></path></g></svg>