<svg class="h-5 w-5" height="512pt" viewBox="0 -32 512 512" width="512pt" xmlns="http://www.w3.org/2000/svg"><path d="m37.574219 440.359375h436.851562c16.601563 0 30.058594-13.457031 30.058594-30.058594v-256.5h-496.96875v256.5c0 16.601563 13.457031 30.058594 30.058594 30.058594zm0 0" fill="#e4edfb"/><path d="m7.515625 42.582031h496.96875v111.21875h-496.96875zm0 0" fill="#f46262"/><path d="m257.003906 214.917969v135.265625c0 8.300781 6.726563 15.03125 15.027344 15.03125h174.339844c8.300781 0 15.03125-6.730469 15.03125-15.03125v-135.265625c0-8.296875-6.730469-15.027344-15.03125-15.027344h-174.339844c-8.300781 0-15.027344 6.730469-15.027344 15.027344zm0 0" fill="#ffde55"/><path d="m212.914062 256-80.15625 30.058594-80.15625-30.058594 80.15625-30.058594zm0 0" fill="#5d6468"/><path d="m132.757812 286.058594-45.085937-16.90625v57.988281c29.164063 10.367187 61.011719 10.367187 90.175781 0v-57.988281zm0 0" fill="#5d6468"/><path d="m132.757812 318.160156 45.089844-16.90625v-32.101562l-45.089844 16.90625-45.085937-16.90625v32.101562zm0 0" fill="#40484f"/><path d="m7.515625 153.800781h496.96875v30.058594h-496.96875zm0 0" fill="#bcc8d9"/><path d="m7.515625 123.742188h496.96875v30.058593h-496.96875zm0 0" fill="#ef4848"/><path d="m498.296875 35.070312c-3.5625-19.910156-20.988281-35.070312-41.90625-35.070312-20.914063 0-38.34375 15.160156-41.90625 35.070312h-16.382813c-3.5625-19.910156-20.988281-35.070312-41.90625-35.070312-20.914062 0-38.34375 15.160156-41.90625 35.070312h-16.382812c-3.5625-19.910156-20.992188-35.070312-41.90625-35.070312s-38.34375 15.160156-41.90625 35.070312h-16.382812c-3.5625-19.910156-20.992188-35.070312-41.90625-35.070312-20.917969 0-38.34375 15.160156-41.90625 35.070312h-16.382813c-3.5625-19.910156-20.992187-35.070312-41.90625-35.070312-20.917969 0-38.34375 15.160156-41.90625 35.070312h-13.703125v219.925782h15.03125v-93.679688h403.285156v-15.03125h-403.285156v-90.796875c5.476562 17.191407 21.59375 29.679688 40.578125 29.679688v-15.03125c-12.589844 0-23.222656-8.488281-26.503906-20.039063h84.792969c3.5625 19.90625 20.988281 35.070313 41.90625 35.070313v-15.03125c-12.589844 0-23.222657-8.488281-26.503907-20.039063h84.792969c3.5625 19.90625 20.992188 35.070313 41.90625 35.070313v-15.03125c-12.585938 0-23.222656-8.488281-26.503906-20.039063h84.792968c3.5625 19.90625 20.992188 35.070313 41.90625 35.070313v-15.03125c-12.585937 0-23.222656-8.488281-26.503906-20.039063h84.792969c3.5625 19.90625 20.992187 35.070313 41.90625 35.070313v-15.03125c-12.585937 0-23.222656-8.488281-26.503906-20.039063h67.082031v34.566406h15.03125v-49.59375zm-41.90625-20.039062c12.589844 0 23.222656 8.488281 26.503906 20.039062h-53.007812c3.28125-11.550781 13.917969-20.039062 26.503906-20.039062zm-100.195313 0c12.589844 0 23.222657 8.488281 26.503907 20.039062h-53.007813c3.28125-11.550781 13.917969-20.039062 26.503906-20.039062zm-100.195312 0c12.585938 0 23.222656 8.488281 26.503906 20.039062h-53.007812c3.28125-11.550781 13.917968-20.039062 26.503906-20.039062zm-100.195312 0c12.585937 0 23.222656 8.488281 26.503906 20.039062h-53.007813c3.28125-11.550781 13.914063-20.039062 26.503907-20.039062zm-100.195313 0c12.585937 0 23.222656 8.488281 26.503906 20.039062h-53.007812c3.28125-11.550781 13.914062-20.039062 26.503906-20.039062zm0 0"/><path d="m496.96875 146.285156h-63.621094v15.03125h63.621094v248.984375c0 12.433594-10.113281 22.542969-22.542969 22.542969h-138.414062v15.03125h138.414062c20.71875 0 37.574219-16.855469 37.574219-37.574219v-310.605469h-15.03125zm0 0"/><path d="m15.03125 410.300781v-140.273437h-15.03125v140.273437c0 20.71875 16.855469 37.574219 37.574219 37.574219h283.410156v-15.03125h-283.410156c-12.433594 0-22.542969-10.109375-22.542969-22.542969zm0 0"/><path d="m446.371094 372.726562c12.429687 0 22.542968-10.113281 22.542968-22.542968v-135.265625c0-12.429688-10.113281-22.542969-22.542968-22.542969h-174.339844c-12.429688 0-22.542969 10.113281-22.542969 22.542969v135.265625c0 12.429687 10.113281 22.542968 22.542969 22.542968zm-113.722656-110.214843h53.105468v40.078125h-53.105468zm-15.027344 40.078125h-53.105469v-40.078125h53.105469zm15.027344-55.105469v-40.078125h53.105468v40.078125zm68.132812 15.027344h53.105469v40.078125h-53.105469zm-15.027344 55.109375v40.078125h-53.105468v-40.078125zm60.617188 40.078125h-45.589844v-40.078125h53.105469v32.5625c0 4.144531-3.371094 7.515625-7.515625 7.515625zm7.515625-142.78125v32.566406h-53.105469v-40.078125h45.589844c4.144531 0 7.515625 3.371094 7.515625 7.511719zm-181.855469-7.511719h45.589844v40.078125h-53.105469v-32.566406c0-4.140625 3.371094-7.511719 7.515625-7.511719zm-7.515625 142.777344v-32.5625h53.105469v40.078125h-45.589844c-4.144531 0-7.515625-3.371094-7.515625-7.515625zm0 0"/><path d="m85.152344 334.21875c15.351562 5.457031 31.476562 8.1875 47.605468 8.1875 16.128907 0 32.257813-2.730469 47.609376-8.1875l4.996093-1.777344v-58.082031l48.953125-18.359375-101.558594-38.085938-101.558593 38.085938 48.957031 18.359375v58.082031zm85.179687-12.5c-24.417969 7.546875-50.726562 7.546875-75.144531 0v-41.726562l37.570312 14.089843 37.574219-14.089843zm-37.574219-87.75 58.757813 22.03125-58.757813 22.03125-58.753906-22.03125zm0 0"/><g fill="#fff"><path d="m128.75 409.800781h-15.027344v-15.03125h15.027344zm-30.058594 0h-57.609375v-42.582031h15.027344v27.550781h42.582031zm0 0"/><path d="m462.402344 409.800781h-15.027344v-15.03125h15.027344zm-30.058594 0h-15.027344v-15.03125h15.027344zm-30.058594 0h-60.117187v-15.03125h60.117187zm0 0"/><path d="m426.332031 118.230469h-40.078125v-15.027344h40.078125zm-55.105469 0h-30.058593v-15.027344h30.058593zm-45.089843 0h-15.027344v-15.027344h15.027344zm-30.058594 0h-60.117187v-15.027344h60.117187zm-75.148437 0h-30.058594v-15.027344h30.058594zm-45.085938 0h-15.03125v-15.027344h15.03125zm-30.058594 0h-60.117187v-15.027344h60.117187zm0 0"/></g></svg>