<svg class="h-5 w-5" height="512pt" viewBox="0 0 512.0268 512" width="512pt" xmlns="http://www.w3.org/2000/svg"><path d="m117.359375 181.347656h362.667969c11.78125 0 21.332031 9.550782 21.332031 21.332032v42.667968h-405.332031v-42.667968c0-11.78125 9.550781-21.332032 21.332031-21.332032zm0 0" fill="#5ba1f0"/><path d="m234.695312 245.347656v74.664063c-.035156 11.769531-9.566406 21.300781-21.335937 21.335937h-74.664063v-53.335937l42.664063-42.664063zm0 0" fill="#5ba1f0"/><path d="m298.695312 277.347656h138.664063c11.78125 0 21.335937 9.550782 21.335937 21.332032v21.332031c0 11.785156-9.554687 21.335937-21.335937 21.335937h-138.664063c-11.785156 0-21.335937-9.550781-21.335937-21.335937v-21.332031c0-11.78125 9.550781-21.332032 21.335937-21.332032zm0 0" fill="#5ba1f0"/><path d="m501.359375 437.347656v32h-53.332031c0-17.675781-14.328125-32-32-32zm0 0" fill="#bac7d5"/><path d="m32.027344 437.347656h64c-17.671875 0-32 14.324219-32 32h-37.332032c-8.839843 0-16-7.164062-16-16 0-8.835937 7.160157-16 16-16zm0 0" fill="#bac7d5"/><path d="m437.359375 277.347656h-138.664063c-11.769531.035156-21.300781 9.566406-21.335937 21.332032v21.332031c.035156 11.769531 9.566406 21.300781 21.335937 21.335937h138.664063c11.769531-.035156 21.300781-9.566406 21.335937-21.335937v-21.332031c-.035156-11.765626-9.566406-21.296876-21.335937-21.332032zm-202.664063-32h266.664063v192h-85.332031c-17.671875 0-32 14.324219-32 32h-256c0-17.675781-14.328125-32-32-32h-64v-74.667968l106.667968-21.332032h74.664063c11.769531-.035156 21.300781-9.566406 21.335937-21.335937zm0 0" fill="#ffc661"/><g fill="#788593"><path d="m448.027344 469.347656c0 17.671875-14.328125 32-32 32s-32-14.328125-32-32c0-17.675781 14.328125-32 32-32s32 14.324219 32 32zm0 0"/><path d="m128.027344 469.347656c0 17.671875-14.328125 32-32 32s-32-14.328125-32-32c0-17.675781 14.328125-32 32-32s32 14.324219 32 32zm0 0"/><path d="m309.359375 128.011719v10.667969h-64v-10.667969c0-17.671875 14.328125-32 32-32 17.675781 0 32 14.328125 32 32zm0 0"/><path d="m298.695312 74.679688c0 11.78125-9.554687 21.332031-21.335937 21.332031s-21.332031-9.550781-21.332031-21.332031 9.550781-21.332032 21.332031-21.332032 21.335937 9.550782 21.335937 21.332032zm0 0"/><path d="m213.359375 128.011719v10.667969h-64v-10.667969c0-17.671875 14.328125-32 32-32 17.675781 0 32 14.328125 32 32zm0 0"/><path d="m202.695312 74.679688c0 11.78125-9.554687 21.332031-21.335937 21.332031s-21.332031-9.550781-21.332031-21.332031 9.550781-21.332032 21.332031-21.332032 21.335937 9.550782 21.335937 21.332032zm0 0"/><path d="m117.359375 128.011719v10.667969h-64v-10.667969c0-17.671875 14.328125-32 32-32 17.675781 0 32 14.328125 32 32zm0 0"/><path d="m106.695312 74.679688c0 11.78125-9.554687 21.332031-21.335937 21.332031s-21.332031-9.550781-21.332031-21.332031 9.550781-21.332032 21.332031-21.332032 21.335937 9.550782 21.335937 21.332032zm0 0"/></g><path d="m352.027344 32.011719v128c-.035156 11.769531-9.566406 21.300781-21.332032 21.335937h-106.667968v32l-32-32h-160c-11.769532-.035156-21.296875-9.566406-21.332032-21.335937v-128c.035157-11.765625 9.5625-21.296875 21.332032-21.332031h298.667968c11.765626.035156 21.296876 9.566406 21.332032 21.332031zm-42.667969 106.667969v-10.667969c0-17.671875-14.324219-32-32-32 11.78125 0 21.335937-9.550781 21.335937-21.332031s-9.554687-21.332032-21.335937-21.332032-21.332031 9.550782-21.332031 21.332032c.035156 11.769531 9.566406 21.296874 21.332031 21.332031-17.671875 0-32 14.328125-32 32v10.667969zm-96 0v-10.667969c0-17.671875-14.324219-32-32-32 11.78125 0 21.335937-9.550781 21.335937-21.332031s-9.554687-21.332032-21.335937-21.332032-21.332031 9.550782-21.332031 21.332032c.035156 11.769531 9.566406 21.296874 21.332031 21.332031-17.671875 0-32 14.328125-32 32v10.667969zm-96 0v-10.667969c0-17.671875-14.324219-32-32-32 11.78125 0 21.335937-9.550781 21.335937-21.332031s-9.554687-21.332032-21.335937-21.332032-21.332031 9.550782-21.332031 21.332032c.035156 11.769531 9.566406 21.296874 21.332031 21.332031-17.671875 0-32 14.328125-32 32v10.667969zm0 0" fill="#ffc661"/><path d="m480.027344 170.679688h-96v21.332031h96c5.890625 0 10.667968 4.777343 10.667968 10.667969v32h-384v-21.332032h-21.335937v32c0 5.890625 4.777344 10.664063 10.667969 10.664063h59.582031l-24.457031 24.460937c-2 2-3.125 4.710938-3.125 7.539063v44.589843l-98.132813 19.625c-4.96875 1.015626-8.535156 5.382813-8.535156 10.453126v64.535156c-13.425781 2.726562-22.601563 15.179687-21.222656 28.8125 1.375 13.628906 12.855469 24 26.558593 23.984375h28.179688c4.789062 18.820312 21.734375 31.992187 41.152344 31.992187 19.417968 0 36.363281-13.171875 41.152344-31.992187h237.695312c4.789062 18.820312 21.734375 31.992187 41.152344 31.992187 19.417968 0 36.363281-13.171875 41.152344-31.992187h44.179687c5.890625 0 10.667969-4.773438 10.667969-10.664063v-266.667968c0-17.671876-14.328125-32-32-32zm-294.25 85.332031h38.25v64c0 5.894531-4.777344 10.667969-10.667969 10.667969h-64v-38.25zm-164.417969 197.335937c0-2.945312 2.386719-5.335937 5.335937-5.335937h32.59375c-1.953124 3.339843-3.4375 6.925781-4.414062 10.667969h-28.179688c-2.949218 0-5.335937-2.386719-5.335937-5.332032zm74.667969 37.332032c-11.78125 0-21.332032-9.550782-21.332032-21.332032s9.550782-21.335937 21.332032-21.335937 21.332031 9.554687 21.332031 21.335937-9.550781 21.332032-21.332031 21.332032zm278.847656-32h-237.695312c-4.851563-18.78125-21.757813-31.925782-41.152344-32h-53.332032v-55.253907l97.066407-19.414062h73.597656c17.675781 0 32-14.324219 32-32v-64h245.335937v170.667969h-74.667968c-19.398438.074218-36.304688 13.21875-41.152344 32zm41.152344 32c-11.78125 0-21.332032-9.550782-21.332032-21.332032s9.550782-21.335937 21.332032-21.335937 21.332031 9.554687 21.332031 21.335937-9.550781 21.332032-21.332031 21.332032zm41.152344-32c-.976563-3.742188-2.464844-7.328126-4.417969-10.667969h37.933593v10.667969zm0 0" fill="#283037"/><path d="m469.359375 320.011719v-21.332031c0-17.671876-14.324219-32-32-32h-138.664063c-17.675781 0-32 14.328124-32 32v21.332031c0 17.675781 14.324219 32 32 32h138.664063c17.675781 0 32-14.324219 32-32zm-181.332031 0v-21.332031c0-5.890626 4.773437-10.667969 10.667968-10.667969h138.664063c5.890625 0 10.667969 4.777343 10.667969 10.667969v21.332031c0 5.894531-4.777344 10.667969-10.667969 10.667969h-138.664063c-5.894531 0-10.667968-4.773438-10.667968-10.667969zm0 0" fill="#283037"/><path d="m53.359375 149.347656h64c5.890625 0 10.667969-4.777344 10.667969-10.667968v-10.667969c.027344-11.316407-4.480469-22.175781-12.511719-30.152344-1.496094-1.417969-3.085937-2.726563-4.769531-3.914063 4.265625-5.519531 6.589844-12.292968 6.613281-19.265624 0-17.671876-14.324219-32-32-32-17.671875 0-32 14.328124-32 32 .035156 6.953124 2.355469 13.699218 6.601563 19.199218-10.839844 8-17.246094 20.664063-17.265626 34.132813v10.667969c0 5.890624 4.773438 10.667968 10.664063 10.667968zm10.667969-21.335937c0-11.78125 9.550781-21.332031 21.332031-21.332031s21.335937 9.550781 21.335937 21.332031zm10.667968-53.332031c0-5.890626 4.773438-10.667969 10.664063-10.667969s10.667969 4.777343 10.667969 10.667969c0 5.890624-4.777344 10.667968-10.667969 10.667968s-10.664063-4.777344-10.664063-10.667968zm0 0" fill="#283037"/><path d="m149.359375 149.347656h64c5.890625 0 10.667969-4.777344 10.667969-10.667968v-10.667969c.027344-11.316407-4.480469-22.175781-12.511719-30.152344-1.496094-1.417969-3.085937-2.726563-4.769531-3.914063 4.265625-5.519531 6.589844-12.292968 6.613281-19.265624 0-17.671876-14.324219-32-32-32-17.671875 0-32 14.328124-32 32 .035156 6.953124 2.355469 13.699218 6.601563 19.199218-10.839844 8-17.246094 20.664063-17.265626 34.132813v10.667969c0 5.890624 4.773438 10.667968 10.664063 10.667968zm10.667969-21.335937c0-11.78125 9.550781-21.332031 21.332031-21.332031s21.335937 9.550781 21.335937 21.332031zm10.667968-53.332031c0-5.890626 4.773438-10.667969 10.664063-10.667969s10.667969 4.777343 10.667969 10.667969c0 5.890624-4.777344 10.667968-10.667969 10.667968s-10.664063-4.777344-10.664063-10.667968zm0 0" fill="#283037"/><path d="m245.359375 149.347656h64c5.890625 0 10.667969-4.777344 10.667969-10.667968v-10.667969c.027344-11.316407-4.480469-22.175781-12.511719-30.152344-1.496094-1.417969-3.085937-2.726563-4.769531-3.914063 4.265625-5.519531 6.589844-12.292968 6.613281-19.265624 0-17.671876-14.324219-32-32-32-17.671875 0-32 14.328124-32 32 .035156 6.953124 2.355469 13.699218 6.601563 19.199218-10.839844 8-17.246094 20.664063-17.265626 34.132813v10.667969c0 5.890624 4.773438 10.667968 10.664063 10.667968zm10.667969-21.335937c0-11.78125 9.550781-21.332031 21.332031-21.332031s21.335937 9.550781 21.335937 21.332031zm10.667968-53.332031c0-5.890626 4.773438-10.667969 10.664063-10.667969s10.667969 4.777343 10.667969 10.667969c0 5.890624-4.777344 10.667968-10.667969 10.667968s-10.664063-4.777344-10.664063-10.667968zm0 0" fill="#283037"/><path d="m32.027344 192.011719h155.582031l28.875 28.875c3.050781 3.050781 7.640625 3.964843 11.625 2.3125 3.984375-1.652344 6.582031-5.539063 6.585937-9.851563v-21.335937h96c17.671876 0 32-14.324219 32-32v-128c0-17.671875-14.328124-32.0000002-32-32.0000002h-298.667968c-17.671875 0-32.0000002 14.3281252-32.0000002 32.0000002v128c0 17.675781 14.3281252 32 32.0000002 32zm-10.667969-160c0-5.890625 4.777344-10.664063 10.667969-10.664063h298.667968c5.890626 0 10.664063 4.773438 10.664063 10.664063v128c0 5.894531-4.773437 10.667969-10.664063 10.667969h-106.667968c-5.890625 0-10.667969 4.777343-10.667969 10.667968v6.25l-13.792969-13.792968c-2-2-4.710937-3.125-7.539062-3.125h-160c-5.890625 0-10.667969-4.773438-10.667969-10.667969zm0 0" fill="#283037"/></svg>