<svg class="h-5 w-5" clip-rule="evenodd" fill-rule="evenodd" height="512" image-rendering="optimizeQuality" shape-rendering="geometricPrecision" text-rendering="geometricPrecision" viewBox="0 0 1707 1707" width="512" xmlns="http://www.w3.org/2000/svg"><g id="Layer_x0020_1"><path d="m237 952c-28-67-57-207 65-243 39-101 152-132 277-98 23 6 26 38 4 48-15 7-29 17-39 25 32 6 78 21 107 63 34 48 36 116 7 204 17 97-11 179-76 228l27 58h43c129 0 234 106 234 235v209c0 14-11 26-26 26h-830c-15 0-26-12-26-26v-209c0-129 105-235 234-235h43l28-61c-62-49-88-129-72-224zm324 306-24-53c-58 24-126 24-183-2l-25 55 116 116zm-505 397h98v-70h-98zm149 0h480v-135c0-34 51-34 51 0v14h98v-62c0-101-82-183-182-183h-49l-140 139c-10 10-26 10-36 0l-140-139h-49c-100 0-182 82-182 183v62h98c0-19 1-40 26-40 33 0 25 44 25 65zm531 0h98v-70h-98zm-442-1081c-252 0-384-308-203-490 112-111 295-111 406 0 182 182 50 490-203 490zm0-522c-205 0-316 252-166 402 91 91 242 91 333 0 149-150 39-402-167-402zm47 386-47-47c-76 77-55 75-150-21-10-10-10-26 0-36l46-47-46-46c-10-10-10-27 0-37 95-95 74-98 150-21 77-76 55-74 151 21 10 10 10 27 0 37l-46 46c76 77 74 55-22 151-10 10-26 10-36 0zm-142-86 31 31c72-72 57-72 129 0l31-31c-72-72-72-57 0-129l-31-32c-72 73-57 73-129 0l-31 32 46 46c10 10 10 27 0 37zm1478 786h-894c-14 0-26-12-26-26v-1083c0-14 12-25 26-25h894c14 0 26 11 26 25v1083c0 14-12 26-26 26zm-868-52h842v-1031h-842zm722-75h-602c-34 0-34-52 0-52h602c34 0 34 52 0 52zm0-118h-602c-34 0-34-52 0-52h602c34 0 34 52 0 52zm0-119h-602c-34 0-34-52 0-52h602c34 0 34 52 0 52zm0-118h-602c-34 0-34-52 0-52h602c34 0 34 52 0 52zm0-119h-602c-34 0-34-51 0-51h602c34 0 34 51 0 51zm0-118h-602c-34 0-34-52 0-52h602c34 0 34 52 0 52zm0-118h-602c-34 0-34-52 0-52h602c34 0 34 52 0 52zm0-119h-602c-34 0-34-51 0-51h602c34 0 34 51 0 51zm-924 777c-23-32-84-104-135-103-14 28-57 79-185 114-18 132 69 203 161 202 117 0 179-97 159-213zm-124-310c-113 0-136 86-136 87-8 31-53 13-75 56-18 36-4 93 8 126 133-37 148-90 148-91 5-20 27-23 45-23 59 0 114 51 148 89 11-50 7-90-12-117-31-43-94-43-101-43-38 1-35-52-2-83-8-1-16-1-23-1z" fill="#333"/><path d="m230 383c72-72 57-72 129 0l31-31c-72-72-72-57 0-129l-31-32c-72 73-57 73-129 0l-31 32 46 46c10 10 10 27 0 37l-46 46z" fill="#ccc"/><path d="m399 287c76 77 74 55-22 151-10 10-26 10-36 0l-47-47c-76 77-55 75-150-21-10-10-10-26 0-36l46-47-46-46c-10-10-10-27 0-37 95-95 74-98 150-21 77-76 55-74 151 21 10 10 10 27 0 37zm-271 167c91 91 242 91 333 0 149-150 39-402-167-402-205 0-316 252-166 402z" fill="#ff3131"/><path d="m483 649c-113 0-136 86-136 87-8 31-53 13-75 56-18 36-4 93 8 126 133-37 148-90 148-91 5-20 27-23 45-23 59 0 114 51 148 89 11-50 7-90-12-117-31-43-94-43-101-43-38 1-35-52-2-83-8-1-16-1-23-1z" fill="#c06000"/><path d="m472 856c-14 28-57 79-185 114-18 132 69 203 161 202 117 0 179-97 159-213-23-32-84-104-135-103z" fill="#ff9e5c"/><path d="m537 1205c-58 24-126 24-183-2l-25 55 116 116 116-116z" fill="#ff9e5c"/><path d="m463 1428c-10 10-26 10-36 0l-140-139h-49c-100 0-182 82-182 183v62h98c0-19 1-40 26-40 33 0 25 44 25 65v96h480v-135c0-34 51-34 51 0v14h98v-62c0-101-82-183-182-183h-49z" fill="#1aa1ff"/><path d="m154 1655v-70h-98v70z" fill="#ff9e5c"/><path d="m736 1585v70h98v-70z" fill="#ff9e5c"/><path d="m809 55v1031h842v-1031zm120 838c-34 0-34-52 0-52h602c34 0 34 52 0 52zm0 66h602c34 0 34 52 0 52h-602c-34 0-34-52 0-52zm602-185h-602c-34 0-34-52 0-52h602c34 0 34 52 0 52zm0-118h-602c-34 0-34-52 0-52h602c34 0 34 52 0 52zm0-119h-602c-34 0-34-51 0-51h602c34 0 34 51 0 51zm0-118h-602c-34 0-34-52 0-52h602c34 0 34 52 0 52zm0-118h-602c-34 0-34-52 0-52h602c34 0 34 52 0 52zm0-119h-602c-34 0-34-51 0-51h602c34 0 34 51 0 51z" fill="#ffe4af"/></g></svg>