<svg class="h-5 w-5" height="512" viewBox="0 0 60 60" width="512" xmlns="http://www.w3.org/2000/svg"><g id="Page-1" fill="none" fill-rule="evenodd"><g id="018---Car-Loan-Approved"><path id="Shape" d="m13 55c.0082843 2.209139-1.775861 4.0067157-3.985 4.015s-4.00671573-1.775861-4.015-3.985v-.03c.00000003-2.209139 1.79086102-3.9999999 4-3.9999999 2.209139 0 4 1.7908609 4 3.9999999z" fill="#37474f" fill-rule="nonzero"/><path id="Shape" d="m41 55v.03c-.0082733 2.2144794-1.807981 4.0041297-4.022472 3.999993s-4.0075-1.8004981-4.0075-4.014993 1.793009-4.0108563 4.0075-4.014993 4.0141987 1.7855136 4.022472 3.999993z" fill="#37474f" fill-rule="nonzero"/><path id="Shape" d="m47 49.06v2.94c-.0060332 1.6709174-1.3590826 3.0239668-3.03 3.03h-2.97v-.03c0-2.209139-1.790861-4-4-4s-4 1.790861-4 4h-20c0-2.209139-1.790861-4-4-4s-4 1.790861-4 4v.03h-.97c-1.67250919-.0022036-3.02779643-1.3574908-3.03-3.03v-5.75c-.00631383-2.4889021 1.31670785-4.7917987 3.47-6.04 4.21-2.42 7.67-4.21 12.48-4.21h7.75c2.156253.0049506 4.2417661.7697567 5.89 2.16l7.11 6.02c.1307136.1111985.27954.1991414.44.26.19.07.37.14.55.22h.02c3.5 1.34 6.68 2.23 6.68 2.23.9571946.2881294 1.6117688 1.1703816 1.61 2.17z" fill="#02a9f4" fill-rule="nonzero"/><path id="Shape" d="m6 51c-1.93395881.001367-3.58908075 1.3881477-3.929 3.292.5432035.4732424 1.23856919.7352025 1.959.738h.97v-.03c.00329571-1.6269922.99173341-3.08988 2.5-3.7-.47592029-.1959772-.9853131-.2978558-1.5-.3z" fill="#0377bc" fill-rule="nonzero"/><path id="Shape" d="m34 51c-2.209139 0-4 1.790861-4 4h3c.0032957-1.6269922.9917334-3.08988 2.5-3.7-.4759203-.1959772-.9853131-.2978558-1.5-.3z" fill="#0377bc" fill-rule="nonzero"/><path id="Shape" d="m45.39 46.89s-3.18-.89-6.68-2.23h-.02c-.18-.08-.36-.15-.55-.22-.16046-.0608586-.3092864-.1488015-.44-.26l-7.11-6.02c-1.6482339-1.3902433-3.733747-2.1550494-5.89-2.16h-3c2.156253.0049506 4.2417661.7697567 5.89 2.16l7.11 6.02c.1307136.1111985.27954.1991414.44.26.19.07.37.14.55.22h.02c3.5 1.34 6.68 2.23 6.68 2.23.9571946.2881294 1.6117688 1.1703816 1.61 2.17v2.94c-.0064129 1.6586043-1.3415197 3.0057271-3 3.027h2.97c1.6697525-.0060223 3.0223237-1.3572543 3.03-3.027v-2.94c.0017688-.9996184-.6528054-1.8818706-1.61-2.17z" fill="#0377bc" fill-rule="nonzero"/><path id="Shape" d="m32.48 45h-27.21c.25015951-.5527735.66602779-1.0140728 1.19-1.32 3.86-2.22 6.68-3.68 10.49-3.68h7.75c1.2086259-.0004345 2.3781265.4283824 3.3 1.21z" fill="#7f8e94" fill-rule="nonzero"/><path id="Shape" d="m28 41.21c-.9218735-.7816176-2.0913741-1.2104345-3.3-1.21h-3c1.2086259-.0004345 2.3781265.4283824 3.3 1.21l4.48 3.79h3z" fill="#545c60" fill-rule="nonzero"/><path id="Shape" d="m35 33.5c0 3.038 3.134 5.5 7 5.5s7-2.462 7-5.5-3.134-5.5-7-5.5-7-2.462-7-5.5 3.134-5.5 7-5.5 7 2.462 7 5.5" stroke="#000" stroke-linecap="round" stroke-linejoin="round" stroke-width="2"/><path id="Shape" d="m42 41v-26" stroke="#000" stroke-linecap="round" stroke-linejoin="round" stroke-width="2"/><path id="Shape" d="m59 28c.0035456 5.0851532-2.2728373 9.9040526-6.2029142 13.1310157-3.9300769 3.226963-9.0998407 4.522051-14.0870858 3.5289843h-.02c-.18-.08-.36-.15-.55-.22-.16046-.0608586-.3092864-.1488015-.44-.26l-7.11-6.02c-1.0197094-.8650938-2.218441-1.4934888-3.51-1.84-1.3458868-2.5681645-2.0589992-5.420614-2.08-8.32 0-9.3888407 7.6111593-17 17-17s17 7.6111593 17 17z" fill="#ffdc00" fill-rule="nonzero"/><path id="Shape" d="m42 11c-.506 0-1.005.032-1.5.076 8.7606893.7694234 15.4851853 8.0988619 15.4989611 16.8932635.0137758 8.7944017-6.6877253 16.1448711-15.4459611 16.9417365 6.2220632.5373414 12.2372094-2.3828051 15.6636275-7.6041522s3.711475-11.9017649.742297-17.3960154c-2.9691779-5.4942505-8.7137041-8.9161884-14.9589245-8.9108324z" fill="#fec108" fill-rule="nonzero"/><path id="Shape" d="m19 1h-16c-1.10320187.0032948-1.9967052.89679813-2 2v21.08c.00288488.5839791.25811459 1.1381922.7 1.52l5.74 4.92c.36173648.3107427.82312154.4811002 1.3.48h4.52c.4768785.0011002.9382635-.1692573 1.3-.48l5.74-4.92c.4418854-.3818078.6971151-.9360209.7-1.52v-21.08c-.0032948-1.10320187-.8967981-1.9967052-2-2zm-8 25c-1.1045695 0-2-.8954305-2-2s.8954305-2 2-2 2 .8954305 2 2c-.0032948 1.1032019-.8967981 1.9967052-2 2z" fill="#ff9801" fill-rule="nonzero"/><path id="Shape" d="m19 1h-3c1.1045695 0 2 .8954305 2 2v21.08c-.0002537.5842743-.2559899 1.1392217-.7 1.519l-5.74 4.919c-.3619999.3105338-.8230567.4814795-1.3.482h3c.4769433-.0005205.9380001-.1714662 1.3-.482l5.74-4.918c.4442755-.3800054.7000385-.9353764.7-1.52v-21.08c0-1.1045695-.8954305-2-2-2z" fill="#f57c00" fill-rule="nonzero"/><circle id="Oval" cx="7" cy="7" fill="#d84315" fill-rule="nonzero" r="2"/><circle id="Oval" cx="15" cy="15" fill="#d84315" fill-rule="nonzero" r="2"/><path id="Shape" d="m11 37.01v-11.01" stroke="#000" stroke-linecap="round" stroke-linejoin="round" stroke-width="2"/><g fill-rule="nonzero"><circle id="Oval" cx="9" cy="55" fill="#000" r="1"/><circle id="Oval" cx="37" cy="55" fill="#000" r="1"/><path id="Shape" d="m4.03 56.03h.079c.48896613 2.3185237 2.53819261 3.9754551 4.90770466 3.9681948 2.36951204-.0072603 4.40854634-1.6767182 4.88329534-3.9981948h18.2c.4757033 2.3203401 2.5142114 3.9885323 4.8828015 3.9957905 2.36859.0072581 4.4172836-1.6484094 4.9071985-3.9657905h2.08c2.2245654-.0027549 4.0272451-1.8054346 4.03-4.03v-2.94c.0041926-1.4493688-.9507127-2.7267891-2.342-3.133-.035-.01-3.539-.992-7.149-2.413-.0593296-.0238074-.114127-.0576329-.162-.1l-7.11-6.02c-1.8272366-1.5460957-4.1434242-2.3943369-6.537-2.394h-7.75c-1.6725911-.0018303-3.3377248.2228787-4.95.668v-3.668h1.26c.7159758-.0000252 1.4083357-.2561132 1.952-.722l5.74-4.92c.665138-.5699288 1.0479736-1.4020848 1.048-2.278v-21.08c0-1.65685425-1.3431458-3-3-3h-16c-1.65685425 0-3 1.34314575-3 3v21.08c-.00078141.8760919.3822022 1.7085696 1.048 2.278l5.74 4.92c.54366431.4658868 1.23602418.7219748 1.952.722h1.26v4.322c-2.08580824.8486919-4.10225475 1.858754-6.031 3.021-2.460825 1.4309878-3.97317454 4.0643584-3.969 6.911v5.746c.00275488 2.2245654 1.80543457 4.0272451 4.03 4.03zm4.71-26.03c-.23881571-.0000216-.46973888-.0855093-.651-.241l-5.74-4.92c-.22150021-.1899629-.34897732-.4671983-.349-.759v-21.08c0-.55228475.44771525-1 1-1h16c.5522847 0 1 .44771525 1 1v21.08c-.0000227.2918017-.1274998.5690371-.349.759l-5.74 4.92c-.1812611.1554907-.4121843.2409784-.651.241h-1.26v-3.184c1.3775467-.4870363 2.2038721-1.8956662 1.9567957-3.3357331-.2470764-1.4400668-1.4956868-2.492694-2.9567957-2.492694s-2.70971927 1.0526272-2.95679568 2.492694c-.24707641 1.4400669.57924899 2.8486968 1.95679568 3.3357331v3.184zm2.26-5c-.5522847 0-1-.4477153-1-1s.4477153-1 1-1 1 .4477153 1 1-.4477153 1-1 1zm-2 33c-1.65685425 0-3-1.3431458-3-3s1.34314575-3 3-3c1.6568542 0 3 1.3431458 3 3s-1.3431458 3-3 3zm28 0c-1.6568542 0-3-1.3431458-3-3s1.3431458-3 3-3 3 1.3431458 3 3-1.3431458 3-3 3zm-35-11.746c-.0055404-2.1314424 1.12514135-4.1043239 2.967-5.177 4.148-2.388 7.433-4.077 11.983-4.077h7.75c1.920416.0006362 3.778438.6819818 5.244 1.923l7.111 6.021c.2151855.1820741.4587437.3276685.721.431 3.71 1.46 7.2 2.438 7.325 2.472.5121291.1550824.8692609.6182691.889 1.153h-1.99c-.5522847 0-1 .4477153-1 1s.4477153 1 1 1h2v1c-.0016522 1.120453-.909547 2.0283478-2.03 2.03h-2.07c-.4660113-2.3318149-2.5098256-4.0128275-4.8877395-4.0201069-2.3779138-.0072793-4.4319816 1.6611888-4.9122605 3.9901069h-18.2c-.4802789-2.3289181-2.5343467-3.9973862-4.91226053-3.9901069-2.37791382.0072794-4.42172814 1.688292-4.88773947 4.0201069h-.07c-1.12045297-.0016522-2.02834782-.909547-2.03-2.03z" fill="#000"/><path id="Shape" d="m5.271 46h27.208c.4194601-.0001671.7942367-.2620962.9385525-.6559487s.0274956-.8359129-.2925525-1.1070513l-4.479-3.79c-1.1026575-.934091-2.5008774-1.4468189-3.946-1.447h-7.75c-4.05 0-6.983 1.51-10.994 3.816-.7045503.4090984-1.26388019 1.0278571-1.6 1.77-.14112755.3102922-.11447356.671101.07071757.9572871.18519112.286186.50340764.4583246.84428243.4567129zm22.083-4.027 2.395 2.027h-10.749v-3h5.7c.9718364.0005988 1.9120681.3453032 2.654.973zm-10.404-.973h.05v3h-9.082c3.248-1.832 5.782-3 9.032-3z" fill="#000"/><path id="Shape" d="m23 48h-4c-.5522847 0-1 .4477153-1 1s.4477153 1 1 1h4c.5522847 0 1-.4477153 1-1s-.4477153-1-1-1z" fill="#000"/><path id="Shape" d="m36 33.5c0-.5522847-.4477153-1-1-1s-1 .4477153-1 1c0 3.308 3.06 6.042 7 6.444v1.056c0 .5522847.4477153 1 1 1s1-.4477153 1-1v-1.056c3.94-.4 7-3.136 7-6.444s-3.06-6.042-7-6.444v-8.988c2.833.358 5 2.207 5 4.432 0 .5522847.4477153 1 1 1s1-.4477153 1-1c0-3.308-3.06-6.042-7-6.444v-1.056c0-.5522847-.4477153-1-1-1s-1 .4477153-1 1v1.056c-3.94.4-7 3.136-7 6.444s3.06 6.042 7 6.444v8.988c-2.833-.358-5-2.207-5-4.432zm12 0c0 2.225-2.167 4.074-5 4.432v-8.864c2.833.358 5 2.207 5 4.432zm-12-11c0-2.225 2.167-4.074 5-4.432v8.864c-2.833-.358-5-2.207-5-4.432z" fill="#000"/><path id="Shape" d="m42 10c-9.9363282.0115721-17.9884279 8.0636718-18 18 .0013762 1.4330479.1718891 2.8609251.508 4.254.1292346.5370969.6694031.8677346 1.2065.7385.5370969-.1292347.8677346-.6694031.7385-1.2065-2.0256646-8.3181826 2.8554829-16.7570103 11.0759024-19.1487005 8.2204196-2.3916902 16.8669338 2.1113315 19.619966 10.2178902 2.7530323 8.1065586-1.3630455 16.9438273-9.3398684 20.0528103-.3444757.1207146-.5958131.4195306-.6557256.7795946-.0599124.3600639.0811192.7241677.3679438.9499269.2868246.2257591.6738706.2773043 1.0097818.1344785 8.0677275-3.1432601 12.7544457-11.5850977 11.1561377-20.094723-1.5983079-8.5096253-9.0287136-14.6755819-17.6871377-14.677277z" fill="#000"/><path id="Shape" d="m7 10c1.65685425 0 3-1.34314575 3-3s-1.34314575-3-3-3-3 1.34314575-3 3 1.34314575 3 3 3zm0-4c.55228475 0 1 .44771525 1 1s-.44771525 1-1 1-1-.44771525-1-1 .44771525-1 1-1z" fill="#000"/><path id="Shape" d="m15 12c-1.6568542 0-3 1.3431458-3 3s1.3431458 3 3 3 3-1.3431458 3-3-1.3431458-3-3-3zm0 4c-.5522847 0-1-.4477153-1-1s.4477153-1 1-1 1 .4477153 1 1-.4477153 1-1 1z" fill="#000"/><path id="Shape" d="m17.707 4.293c-.3904999-.39038194-1.0235001-.39038194-1.414 0l-12 12c-.25995658.2510745-.3642126.6228779-.27269716.9725073.09151544.3496295.3645604.6226744.71418984.7141899.34962943.0915154.72143285-.0127406.97250732-.2726972l12-12c.3903819-.39049985.3903819-1.02350015 0-1.414z" fill="#000"/></g></g></g></svg>