<svg class="h-5 w-5" viewBox="0 0 48 48" xmlns="http://www.w3.org/2000/svg"><g id="Money_for_study" data-name="Money for study"><path d="m6 14v-5.86a1 1 0 0 1 2 0v5.86a1 1 0 0 1 -2 0z" fill="#374f68"/><path d="m1 18h40v20h-40z" fill="#9dcc6b"/><path d="m41 18v18h-19a18 18 0 0 1 -18-18z" fill="#b5e08c"/><path d="m45 7-21 6-21-6 21-6z" fill="#374f68"/><path d="m42.5 6.29c-12.36 3.53-23.24 2.78-35-.58l16.5-4.71z" fill="#425b72"/><path d="m37 9.29v8.71h-26v-8.71l13 3.71z" fill="#374f68"/><path d="m37 9.29v6.71h-17.15a5.85 5.85 0 0 1 -5.85-5.85l10 2.85z" fill="#425b72"/><path d="m27.46 35h-19.46a1 1 0 0 1 -1-1 2 2 0 0 0 -2-2 1 1 0 0 1 -1-1v-6a1 1 0 0 1 1-1 2 2 0 0 0 2-2 1 1 0 0 1 1-1h26a1 1 0 0 1 1 1 2 2 0 0 0 2 2 1 1 0 0 1 1 1v2a1 1 0 0 1 -2 0v-1.13a4 4 0 0 1 -2.87-2.87h-24.26a4 4 0 0 1 -2.87 2.87v4.26a4 4 0 0 1 2.87 2.87h18.59a1 1 0 0 1 0 2z" fill="#84b749"/><path d="m47 37a10 10 0 0 1 -10 10c-10 0-13.73-13-5.41-18.41a10 10 0 0 1 15.41 8.41z" fill="#fc6"/><path d="m47 37a9.92 9.92 0 0 1 -1.59 5.41 10 10 0 0 1 -13.82-13.82 10 10 0 0 1 15.41 8.41z" fill="#ffde76"/><path d="m24 28a3 3 0 1 1 -5-2.24 3 3 0 0 1 5 2.24z" fill="#84b749"/><path d="m24 28a1 1 0 0 1 0 .24 3 3 0 0 1 -5-2.24 1 1 0 0 1 0-.24 3 3 0 0 1 5 2.24z" fill="#9dcc6b"/><path d="m11.29 27.29a1 1 0 0 1 1.42 1.42 1 1 0 0 1 -1.42-1.42z" fill="#84b749"/><g fill="#f8834b"><path d="m36 33v-2a1 1 0 0 1 2 0v2a1 1 0 0 1 -2 0z"/><path d="m36 43v-2a1 1 0 0 1 2 0v2a1 1 0 0 1 -2 0z"/><path d="m38 42h-4a1 1 0 0 1 0-2h4a1 1 0 0 0 0-2h-2a3 3 0 0 1 0-6h4a1 1 0 0 1 0 2h-4a1 1 0 0 0 0 2h2a3 3 0 0 1 0 6z"/></g><path d="m36 34h4a1 1 0 0 0 0-2h-2v-1a1 1 0 0 0 -2 0v1a3 3 0 0 0 0 6h2a1 1 0 0 1 0 2h-4a1 1 0 0 0 0 2h2v1a1 1 0 0 0 2 0v-1a3 3 0 0 0 0-6h-2a1 1 0 0 1 0-2z"/><path d="m42 27.21v-9.21a1 1 0 0 0 -1-1h-3v-7l7.27-2a1 1 0 0 0 0-1.92l-21-6c-.41-.12 1.19-.5-21.54 6a1 1 0 0 0 0 1.92l3.27.9v5.1a1 1 0 0 0 2 0v-4.53l2 .53v7h-9a1 1 0 0 0 -1 1v20a1 1 0 0 0 1 1h25.19a11 11 0 0 0 10.81 9c11.43 0 15.32-15.49 5-20.79zm-18-25.21 17.36 5-17.36 5-17.36-5zm-12 8.61c12.64 3.61 11.79 3.39 12 3.39s-.52.19 12-3.39v6.39h-24zm-10 26.39v-18h38v7.43a10.24 10.24 0 0 0 -2-.38v-1.05a1 1 0 0 0 -1-1 2 2 0 0 1 -2-2 1 1 0 0 0 -1-1h-26a1 1 0 0 0 -1 1 2 2 0 0 1 -2 2 1 1 0 0 0 -1 1v6a1 1 0 0 0 1 1 2 2 0 0 1 2 2 1 1 0 0 0 1 1h18.19a11 11 0 0 0 -.19 2zm24.76-4h-17.89a4 4 0 0 0 -2.87-2.87v-4.26a4 4 0 0 0 2.87-2.87h24.26a4 4 0 0 0 2.87 2.87v.18a11 11 0 0 0 -9.24 6.95zm10.24 13a9 9 0 1 1 9-9 9 9 0 0 1 -9 9z"/><path d="m21 24a4 4 0 1 0 4 4 4 4 0 0 0 -4-4zm0 6a2 2 0 1 1 2-2 2 2 0 0 1 -2 2z"/><path d="m11.29 27.29a1 1 0 1 0 1.42 0 1 1 0 0 0 -1.42 0z"/></g></svg>