<svg class="h-5 w-5" clip-rule="evenodd" fill-rule="evenodd" height="512" image-rendering="optimizeQuality" shape-rendering="geometricPrecision" text-rendering="geometricPrecision" viewBox="0 0 7.11111 7.11111" width="512" xmlns="http://www.w3.org/2000/svg"><g id="Layer_x0020_1"><path d="m2.0469 6.2103h-.877461v.401799c0 .220827.180965.401787.401791.401787h.073878c.220827 0 .401791-.180961.401791-.401787v-.401799z" fill="#212132"/><path d="m5.17849 6.2103v.401799c0 .220827.180965.401787.401791.401787h.073874c.220827 0 .401791-.180961.401791-.401787v-.401799h-.877457z" fill="#212132"/><path d="m5.09516 6.04363h1.04413.477736c.040685 0 .0742598-.0335709.0742598-.0742559v-.531945c0-.0406811-.0335827-.074252-.0742598-.074252h-.0394055-5.92985-.0394055c-.0406772 0-.0742598.0335709-.0742598.074252v.531945c0 .040685.0335748.0742559.0742598.0742559h.477744 1.04413 2.96493z" fill="#d5cadb"/><path d="m5.34841 4.50167c0 .315354.383012.474059.606035.251035.138622-.138622.138622-.363449 0-.502071-.223024-.223024-.606035-.0643189-.606035.251035z" fill="#d5cadb"/><path d="m1.773 4.7527c.138622-.138622.138622-.363449 0-.502071-.22302-.22302-.606039-.0643268-.606039.251035 0 .315358.38302.474055.606039.251035z" fill="#d5cadb"/><path d="m2.04364 4.50167c0 .288094-.233591.521673-.521673.521673-.288087 0-.521673-.233587-.521673-.521673 0-.288087.233587-.521673.521673-.521673.288087 0 .521673.233587.521673.521673zm.702224.45765c-.0460236 0-.0833346-.037311-.0833346-.0833346s.037311-.0833346.0833346-.0833346h1.73365c.0460236 0 .0833346.037311.0833346.0833346s-.037311.0833346-.0833346.0833346zm2.95754.0640236c-.288083 0-.521673-.233579-.521673-.521673 0-.288087.233587-.521673.521673-.521673.288091 0 .521669.233591.521669.521673 0 .288083-.233579.521673-.521669.521673zm.79087.173169v-1.31542c0-.0406654-.0336024-.0742559-.0742559-.0742559h-.0935945-.453102-2.24833-2.24339-.458047-.118213c-.040626 0-.074252.0336299-.074252.0742559v1.31542h5.76318zm-3.83175-.694843c0-.0460236.037311-.0833346.0833346-.0833346h1.73365c.0460236 0 .0833346.037311.0833346.0833346s-.037311.0833346-.0833346.0833346h-1.73365c-.0460236 0-.0833346-.037311-.0833346-.0833346zm.0833346-.290976c-.0460236 0-.0833346-.037311-.0833346-.0833346s.037311-.0833346.0833346-.0833346h1.73365c.0460236 0 .0833346.037311.0833346.0833346s-.037311.0833346-.0833346.0833346z" fill="#f2a500"/><path d="m.529173 3.08363h.311055v-.985815h-.155528c-.085378 0-.155528.0701496-.155528.155528v.830287z" fill="#f2a500"/><path d="m6.40976 2.09781v.985815h.311059v-.830287c0-.085378-.0701496-.155528-.155528-.155528z" fill="#f2a500"/><path d="m6.24309 3.16696v-1.15248-.73425h-.28643v2.35993h.28643z" fill="#f9c227"/><path d="m5.78999 3.64016v-2.35993h-2.08166v2.35993zm-.504366-1.94715-.93398 1.6177c-.0230079.0397283-.073878.0532835-.113606.0302756-.0397283-.0230079-.0532835-.073878-.0302756-.113606l.93398-1.6177c.0230079-.0397283.073878-.0532835.113606-.0302756.0397283.0230079.0532835.073878.0302756.113606z" fill="#f9c227"/><path d="m3.54167 3.64016v-2.35993h-2.07672v2.35993zm-.529705-2.06076c.0397283.0230079.0532835.073878.0302756.113606l-.93398 1.6177c-.0230079.0397283-.073878.0532835-.113606.0302756-.0397283-.0230079-.0532835-.073878-.0302756-.113606l.93398-1.6177c.0230079-.0397283.073878-.0532835.113606-.0302756z" fill="#f9c227"/><path d="m1.29828 3.64016v-2.35993h-.29138v.73425 1.15248.4732z" fill="#f9c227"/><path d="m1.38161 1.11356h2.24339 2.24833.369768v-.148146c0-.193748-.314992-.374339-.766476-.505307-1.02983-.298736-2.67341-.29874-3.70324 0-.45465.13189-.743559.303882-.765165.485508l-.00131496-.00015354v.00006693l.00138189.00016535-.00138189.0197205v.148146h.374713zm1.7642-.259067c-.159724.159724-.433744.0458898-.433744-.179657 0-.140299.113787-.254087.254087-.254087.225547 0 .339382.27402.179657.433744zm.65885 0c-.159732.159724-.433744.0458858-.433744-.179657 0-.140299.113787-.254087.254087-.254087.225551 0 .339378.274028.179657.433744zm.65885 0c-.159724.159724-.433744.0458898-.433744-.179657 0-.140299.113787-.254087.254087-.254087.225547 0 .339382.27402.179657.433744z" fill="#f9c227"/><path d="m4.19643.674839c0 .0777323.0943701.116693.14924.0618228.034126-.034126.034126-.0895197 0-.123646-.0548701-.0548701-.14924-.0159094-.14924.0618228z" fill="#f2a500"/><path d="m3.68682.736661c.034126-.034126.034126-.0895197 0-.123646-.0548701-.0548701-.14924-.0159094-.14924.0618228 0 .0777323.0943701.116693.14924.0618228z" fill="#f2a500"/><path d="m3.02797.736661c.034126-.034126.034126-.0895197 0-.123646-.0548701-.0548701-.14924-.0159094-.14924.0618228 0 .0777323.0943701.116693.14924.0618228z" fill="#f2a500"/><g fill-rule="nonzero"><path d="m.538913 5.97419h6.00866c.040685 0 .0742598-.0335709.0742598-.0742559v-.531945c0-.0406811-.0335827-.074252-.0742598-.074252h-6.00866c-.0406772 0-.0742598.0335709-.0742598.074252v.531945c0 .040685.0335748.0742559.0742598.0742559zm6.00866.166669h-6.00866c-.132673 0-.240929-.108248-.240929-.240925v-.531945c0-.132673.10826-.240921.240929-.240921h6.00866c.132669 0 .240929.108248.240929.240921v.531945c0 .132677-.108256.240925-.240929.240925z"/><path d="m6.42483 5.12706v-1.31542c0-.0406654-.0336024-.0742559-.0742559-.0742559h-5.61467c-.040626 0-.074252.0336299-.074252.0742559v1.31542h5.76318zm.166669-1.31542v1.39876c0 .0460236-.037311.0833346-.0833346.0833346h-5.92985c-.0460236 0-.0833346-.037311-.0833346-.0833346v-1.39876c0-.132614.108299-.240925.240921-.240925h5.61467c.132638 0 .240925.108268.240925.240925z"/><path d="m.937453 3.57072h5.2362v-2.67474c0-.193748-.314992-.374339-.766476-.505307-1.02983-.298736-2.67341-.29874-3.70324 0-.45465.13189-.743559.303882-.765165.485508l-.00131496-.00015354v.00006693l.00138189.00016535-.00138189.0197205v2.67474zm5.31953.166669h-5.40287c-.0460236 0-.0833346-.037311-.0833346-.0833346v-2.78764c0-.0108622.00207874-.0212323.00585827-.030748.045622-.245398.374933-.457677.881071-.6045 1.06241-.308185 2.73327-.308189 3.79568 0 .506142.146827.835453.359106.881067.6045.0081063.0280945.00585827.0296535.00585827.060311v2.75808c0 .0460236-.037311.0833346-.0833346.0833346z"/><path d="m.854118 1.04412c-.0460236 0-.0833346.037311-.0833346.0833346s.037311.0833346.0833346.0833346h5.40287c.0460236 0 .0833346-.037311.0833346-.0833346s-.037311-.0833346-.0833346-.0833346z"/><path d="m1.3955 1.12745c0-.0460236-.037311-.0833346-.0833346-.0833346s-.0833346.037311-.0833346.0833346v2.5266c0 .0460236.037311.0833346.0833346.0833346s.0833346-.037311.0833346-.0833346z"/><path d="m5.88722 1.12745c0-.0460236-.037311-.0833346-.0833346-.0833346s-.0833346.037311-.0833346.0833346v2.5266c0 .0460236.037311.0833346.0833346.0833346s.0833346-.037311.0833346-.0833346z"/><path d="m3.63889 1.12745c0-.0460236-.037311-.0833346-.0833346-.0833346s-.0833346.037311-.0833346.0833346v2.5266c0 .0460236.037311.0833346.0833346.0833346s.0833346-.037311.0833346-.0833346z"/><path d="m.770783 2.02837h-.155528c-.085378 0-.155528.0701496-.155528.155528v.830287h.311055v-.985815zm-.155528-.166669h.238862c.0460236 0 .0833346.037311.0833346.0833346v1.15248c0 .0460236-.037311.0833346-.0833346.0833346h-.477724c-.0460236 0-.0833346-.037311-.0833346-.0833346v-.913622c0-.177374.144823-.322197.322197-.322197z"/><path d="m6.25698 1.8617h.238866c.177374 0 .322197.144823.322197.322197v.913622c0 .0460236-.037311.0833346-.0833346.0833346h-.477728c-.0460236 0-.0833346-.037311-.0833346-.0833346v-1.15248c0-.0460236.037311-.0833346.0833346-.0833346zm.238866.166669h-.155531v.985815h.311059v-.830287c0-.085378-.0701496-.155528-.155528-.155528z"/><path d="m2.8967.351307c.225547 0 .339382.27402.179657.433744-.159724.159724-.433744.0458898-.433744-.179657 0-.140299.113787-.254087.254087-.254087zm.0618228.192264c-.0548701-.0548701-.14924-.0159094-.14924.0618228 0 .0777323.0943701.116693.14924.0618228.034126-.034126.034126-.0895197 0-.123646z"/><path d="m3.55556.351307c.225551 0 .339378.274028.179657.433744-.159732.159724-.433744.0458858-.433744-.179657 0-.140299.113787-.254087.254087-.254087zm.0618228.192264c-.0548701-.0548701-.14924-.0159094-.14924.0618228 0 .0777323.0943701.116693.14924.0618228.034126-.034126.034126-.0895197 0-.123646z"/><path d="m4.21441.351307c.225547 0 .339382.27402.179657.433744-.159724.159724-.433744.0458898-.433744-.179657 0-.140299.113787-.254087.254087-.254087zm.0618228.192264c-.0548701-.0548701-.14924-.0159094-.14924.0618228 0 .0777323.0943701.116693.14924.0618228.034126-.034126.034126-.0895197 0-.123646z"/><path d="m2.67642 3.97457c-.0460236 0-.0833346.037311-.0833346.0833346s.037311.0833346.0833346.0833346h1.73365c.0460236 0 .0833346-.037311.0833346-.0833346s-.037311-.0833346-.0833346-.0833346z"/><path d="m2.67642 4.34889c-.0460236 0-.0833346.037311-.0833346.0833346s.037311.0833346.0833346.0833346h1.73365c.0460236 0 .0833346-.037311.0833346-.0833346s-.037311-.0833346-.0833346-.0833346z"/><path d="m2.67642 4.7232c-.0460236 0-.0833346.037311-.0833346.0833346s.037311.0833346.0833346.0833346h1.73365c.0460236 0 .0833346-.037311.0833346-.0833346s-.037311-.0833346-.0833346-.0833346z"/><path d="m1.45252 3.91055c.288087 0 .521673.233587.521673.521673 0 .288094-.233591.521673-.521673.521673-.288087 0-.521673-.233587-.521673-.521673 0-.288087.233587-.521673.521673-.521673zm.251035.270638c-.22302-.22302-.606039-.0643268-.606039.251035 0 .315358.38302.474055.606039.251035.138622-.138622.138622-.363449 0-.502071z"/><path d="m5.63396 3.91055c.288091 0 .521669.233591.521669.521673 0 .288083-.233579.521673-.521669.521673-.288083 0-.521673-.233579-.521673-.521673 0-.288087.233587-.521673.521673-.521673zm.251031.270638c-.223024-.223024-.606035-.0643189-.606035.251035 0 .315354.383012.474059.606035.251035.138622-.138622.138622-.363449 0-.502071z"/><path d="m1.01666 5.97419h1.04413c.0460236 0 .0833346.037311.0833346.0833346v.485134c0 .312819-.255646.568457-.568461.568457h-.073878c-.312815 0-.568461-.255638-.568461-.568457v-.485134c0-.0460236.037311-.0833346.0833346-.0833346zm.960795.166669h-.877461v.401799c0 .220827.180965.401787.401791.401787h.073878c.220827 0 .401791-.180961.401791-.401787v-.401799z"/><path d="m5.02571 5.97419h1.04413c.0460236 0 .0833346.037311.0833346.0833346v.485134c0 .312819-.255646.568457-.568461.568457h-.073874c-.312815 0-.568461-.255638-.568461-.568457v-.485134c0-.0460236.037311-.0833346.0833346-.0833346zm.960791.166669h-.877457v.401799c0 .220827.180965.401787.401791.401787h.073874c.220827 0 .401791-.180961.401791-.401787v-.401799z"/><path d="m2.97279 1.62357c.0230079-.0397283.00945276-.0905984-.0302756-.113606-.0397283-.0230079-.0905984-.00945276-.113606.0302756l-.93398 1.6177c-.0230079.0397283-.00945276.0905984.0302756.113606.0397283.0230079.0905984.00945276.113606-.0302756z"/><path d="m5.21618 1.62357c.0230079-.0397283.00945276-.0905984-.0302756-.113606-.0397283-.0230079-.0905984-.00945276-.113606.0302756l-.93398 1.6177c-.0230079.0397283-.00945276.0905984.0302756.113606.0397283.0230079.0905984.00945276.113606-.0302756z"/></g></g></svg>